Agency_FB-Regular.ufo
<glyph name="exclam" format="2">
  <advance width="199"/>
  <unicode hex="0021"/>
  <outline>
    <contour>
      <point x="137" y="764" type="line"/>
      <point x="122" y="172" type="line"/>
      <point x="77" y="172" type="line"/>
      <point x="62" y="764" type="line"/>
    </contour>
    <contour>
      <point x="136" y="0" type="line"/>
      <point x="63" y="0" type="line"/>
      <point x="63" y="86" type="line"/>
      <point x="136" y="86" type="line"/>
    </contour>
  </outline>
</glyph>
<glyph name="quotedbl" format="2">
  <advance width="307"/>
  <unicode hex="0022"/>
  <outline>
    <contour>
      <point x="259" y="764" type="line"/>
      <point x="245" y="524" type="line"/>
      <point x="202" y="524" type="line"/>
      <point x="188" y="764" type="line"/>
    </contour>
    <contour>
      <point x="119" y="764" type="line"/>
      <point x="104" y="524" type="line"/>
      <point x="62" y="524" type="line"/>
      <point x="47" y="764" type="line"/>
    </contour>
  </outline>
</glyph>
<glyph name="dollar" format="1">
  <advance width="415"/>
  <unicode hex="0024"/>
  <outline>
    <contour>
      <point x="356" y="59" type="line"/>
      <point x="356" y="27"/>
      <point x="334" y="5"/>
      <point x="302" y="5" type="curve" smooth="yes"/>
      <point x="236" y="5" type="line"/>
      <point x="236" y="-60" type="line"/>
      <point x="177" y="-60" type="line"/>
      <point x="177" y="5" type="line"/>
      <point x="112" y="5" type="line" smooth="yes"/>
      <point x="80" y="5"/>
      <point x="58" y="27"/>
      <point x="58" y="59" type="curve" smooth="yes"/>
      <point x="58" y="248" type="line"/>
      <point x="126" y="248" type="line"/>
      <point x="126" y="62" type="line"/>
      <point x="177" y="62" type="line"/>
      <point x="177" y="377" type="line"/>
      <point x="80" y="497" type="line" smooth="yes"/>
      <point x="64" y="516"/>
      <point x="58" y="529"/>
      <point x="58" y="555" type="curve" smooth="yes"/>
      <point x="58" y="705" type="line" smooth="yes"/>
      <point x="58" y="737"/>
      <point x="80" y="759"/>
      <point x="112" y="759" type="curve" smooth="yes"/>
      <point x="177" y="759" type="line"/>
      <point x="177" y="824" type="line"/>
      <point x="236" y="824" type="line"/>
      <point x="236" y="759" type="line"/>
      <point x="302" y="759" type="line" smooth="yes"/>
      <point x="334" y="759"/>
      <point x="356" y="737"/>
      <point x="356" y="705" type="curve" smooth="yes"/>
      <point x="356" y="532" type="line"/>
      <point x="288" y="532" type="line"/>
      <point x="288" y="702" type="line"/>
      <point x="236" y="702" type="line"/>
      <point x="236" y="407" type="line"/>
      <point x="334" y="288" type="line" smooth="yes"/>
      <point x="350" y="269"/>
      <point x="356" y="256"/>
      <point x="356" y="231" type="curve" smooth="yes"/>
    </contour>
    <contour>
      <point x="177" y="476" type="line"/>
      <point x="177" y="702" type="line"/>
      <point x="126" y="702" type="line"/>
      <point x="126" y="541" type="line"/>
    </contour>
    <contour>
      <point x="288" y="62" type="line"/>
      <point x="288" y="245" type="line"/>
      <point x="236" y="308" type="line"/>
      <point x="236" y="62" type="line"/>
    </contour>
  </outline>
</glyph>
<glyph name="percent" format="1">
  <advance width="670"/>
  <unicode hex="0025"/>
  <outline>
    <contour>
      <point x="281" y="434" type="line"/>
      <point x="281" y="400"/>
      <point x="264" y="384"/>
      <point x="230" y="384" type="curve" smooth="yes"/>
      <point x="96" y="384" type="line" smooth="yes"/>
      <point x="62" y="384"/>
      <point x="45" y="400"/>
      <point x="45" y="434" type="curve" smooth="yes"/>
      <point x="45" y="714" type="line" smooth="yes"/>
      <point x="45" y="748"/>
      <point x="62" y="764"/>
      <point x="96" y="764" type="curve" smooth="yes"/>
      <point x="230" y="764" type="line" smooth="yes"/>
      <point x="264" y="764"/>
      <point x="281" y="748"/>
      <point x="281" y="714" type="curve" smooth="yes"/>
    </contour>
    <contour>
      <point x="573" y="760" type="line"/>
      <point x="153" y="0" type="line"/>
      <point x="97" y="0" type="line"/>
      <point x="97" y="4" type="line"/>
      <point x="517" y="764" type="line"/>
      <point x="573" y="764" type="line"/>
    </contour>
    <contour>
      <point x="625" y="50" type="line"/>
      <point x="625" y="16"/>
      <point x="608" y="0"/>
      <point x="574" y="0" type="curve" smooth="yes"/>
      <point x="440" y="0" type="line" smooth="yes"/>
      <point x="406" y="0"/>
      <point x="389" y="16"/>
      <point x="389" y="50" type="curve" smooth="yes"/>
      <point x="389" y="330" type="line" smooth="yes"/>
      <point x="389" y="364"/>
      <point x="406" y="380"/>
      <point x="440" y="380" type="curve" smooth="yes"/>
      <point x="574" y="380" type="line" smooth="yes"/>
      <point x="608" y="380"/>
      <point x="625" y="360"/>
      <point x="625" y="326" type="curve" smooth="yes"/>
    </contour>
    <contour>
      <point x="225" y="433" type="line"/>
      <point x="225" y="715" type="line"/>
      <point x="100" y="715" type="line"/>
      <point x="100" y="433" type="line"/>
    </contour>
    <contour>
      <point x="569" y="49" type="line"/>
      <point x="569" y="331" type="line"/>
      <point x="444" y="331" type="line"/>
      <point x="444" y="49" type="line"/>
    </contour>
  </outline>
</glyph>
<glyph name="ampersand" format="1">
  <advance width="435"/>
  <unicode hex="0026"/>
  <outline>
    <contour>
      <point x="415" y="369" type="line"/>
      <point x="359" y="369" type="line"/>
      <point x="359" y="0" type="line"/>
      <point x="112" y="0" type="line" smooth="yes"/>
      <point x="80" y="0"/>
      <point x="58" y="22"/>
      <point x="58" y="54" type="curve" smooth="yes"/>
      <point x="58" y="314" type="line" smooth="yes"/>
      <point x="58" y="337"/>
      <point x="64" y="351"/>
      <point x="83" y="363" type="curve" smooth="yes"/>
      <point x="140" y="400" type="line"/>
      <point x="85" y="435" type="line" smooth="yes"/>
      <point x="67" y="446"/>
      <point x="60" y="460"/>
      <point x="60" y="483" type="curve" smooth="yes"/>
      <point x="60" y="710" type="line" smooth="yes"/>
      <point x="60" y="742"/>
      <point x="82" y="764"/>
      <point x="114" y="764" type="curve" smooth="yes"/>
      <point x="307" y="764" type="line" smooth="yes"/>
      <point x="339" y="764"/>
      <point x="362" y="742"/>
      <point x="362" y="710" type="curve" smooth="yes"/>
      <point x="362" y="550" type="line"/>
      <point x="294" y="550" type="line"/>
      <point x="294" y="704" type="line"/>
      <point x="127" y="704" type="line"/>
      <point x="127" y="474" type="line"/>
      <point x="196" y="428" type="line"/>
      <point x="415" y="428" type="line"/>
    </contour>
    <contour>
      <point x="292" y="60" type="line"/>
      <point x="292" y="369" type="line"/>
      <point x="195" y="369" type="line"/>
      <point x="125" y="324" type="line"/>
      <point x="125" y="60" type="line"/>
    </contour>
  </outline>
</glyph>
<glyph name="quotesingle" format="1">
  <advance width="166"/>
  <unicode hex="0027"/>
  <outline>
    <contour>
      <point x="119" y="764" type="line"/>
      <point x="104" y="524" type="line"/>
      <point x="62" y="524" type="line"/>
      <point x="47" y="764" type="line"/>
    </contour>
  </outline>
</glyph>
<glyph name="parenright" format="1">
  <advance width="263"/>
  <unicode hex="0029"/>
  <outline>
    <contour>
      <point x="212" y="333" type="curve" smooth="yes"/>
      <point x="212" y="145"/>
      <point x="164" y="21"/>
      <point x="91" y="-98" type="curve"/>
      <point x="33" y="-98" type="line"/>
      <point x="33" y="-93" type="line"/>
      <point x="105" y="38"/>
      <point x="145" y="156"/>
      <point x="145" y="333" type="curve" smooth="yes"/>
      <point x="145" y="510"/>
      <point x="105" y="628"/>
      <point x="33" y="759" type="curve"/>
      <point x="33" y="764" type="line"/>
      <point x="91" y="764" type="line"/>
      <point x="164" y="645"/>
      <point x="212" y="521"/>
    </contour>
  </outline>
</glyph>
<glyph name="asterisk" format="1">
  <advance width="397"/>
  <unicode hex="002A"/>
  <outline>
    <contour>
      <point x="349" y="558" type="line"/>
      <point x="317" y="505" type="line"/>
      <point x="216" y="580" type="line"/>
      <point x="228" y="453" type="line"/>
      <point x="168" y="453" type="line"/>
      <point x="181" y="580" type="line"/>
      <point x="79" y="505" type="line"/>
      <point x="48" y="558" type="line"/>
      <point x="165" y="608" type="line"/>
      <point x="48" y="659" type="line"/>
      <point x="79" y="711" type="line"/>
      <point x="181" y="637" type="line"/>
      <point x="168" y="764" type="line"/>
      <point x="228" y="764" type="line"/>
      <point x="216" y="637" type="line"/>
      <point x="317" y="711" type="line"/>
      <point x="349" y="659" type="line"/>
      <point x="232" y="608" type="line"/>
    </contour>
  </outline>
</glyph>
<glyph name="plus" format="1">
  <advance width="409"/>
  <unicode hex="002B"/>
  <outline>
    <contour>
      <point x="375" y="307" type="line"/>
      <point x="235" y="307" type="line"/>
      <point x="235" y="169" type="line"/>
      <point x="175" y="169" type="line"/>
      <point x="175" y="307" type="line"/>
      <point x="34" y="307" type="line"/>
      <point x="34" y="364" type="line"/>
      <point x="175" y="364" type="line"/>
      <point x="175" y="502" type="line"/>
      <point x="235" y="502" type="line"/>
      <point x="235" y="364" type="line"/>
      <point x="375" y="364" type="line"/>
    </contour>
  </outline>
</glyph>
<glyph name="comma" format="2">
  <advance width="166"/>
  <unicode hex="002C"/>
  <outline>
    <contour>
      <point x="130" y="86" type="line"/>
      <point x="87" y="-54" type="line"/>
      <point x="40" y="-54" type="line"/>
      <point x="54" y="86" type="line"/>
    </contour>
  </outline>
</glyph>
<glyph name="hyphen" format="1">
  <advance width="295"/>
  <unicode hex="002D"/>
  <unicode hex="00AD"/>
  <unicode hex="2010"/>
  <unicode hex="2011"/>
  <outline>
    <contour>
      <point x="248" y="261" type="line"/>
      <point x="47" y="261" type="line"/>
      <point x="47" y="322" type="line"/>
      <point x="248" y="322" type="line"/>
    </contour>
  </outline>
</glyph>
<glyph name="period" format="1">
  <advance width="166"/>
  <unicode hex="002E"/>
  <outline>
    <contour>
      <point x="120" y="0" type="line"/>
      <point x="46" y="0" type="line"/>
      <point x="46" y="86" type="line"/>
      <point x="120" y="86" type="line"/>
    </contour>
  </outline>
</glyph>
<glyph name="zero" format="2">
  <advance width="434"/>
  <unicode hex="0030"/>
  <outline>
    <contour>
      <point x="373" y="54" type="line"/>
      <point x="373" y="22"/>
      <point x="350" y="0"/>
      <point x="318" y="0" type="curve" smooth="yes"/>
      <point x="115" y="0" type="line" smooth="yes"/>
      <point x="83" y="0"/>
      <point x="61" y="22"/>
      <point x="61" y="54" type="curve" smooth="yes"/>
      <point x="61" y="710" type="line" smooth="yes"/>
      <point x="61" y="742"/>
      <point x="83" y="764"/>
      <point x="115" y="764" type="curve" smooth="yes"/>
      <point x="318" y="764" type="line" smooth="yes"/>
      <point x="350" y="764"/>
      <point x="373" y="742"/>
      <point x="373" y="710" type="curve" smooth="yes"/>
    </contour>
    <contour>
      <point x="305" y="60" type="line"/>
      <point x="305" y="704" type="line"/>
      <point x="129" y="704" type="line"/>
      <point x="129" y="60" type="line"/>
    </contour>
  </outline>
</glyph>
<glyph name="one" format="2">
  <advance width="203"/>
  <unicode hex="0031"/>
  <outline>
    <contour>
      <point x="137" y="0" type="line"/>
      <point x="69" y="0" type="line"/>
      <point x="69" y="530" type="line"/>
      <point x="39" y="530" type="line"/>
      <point x="39" y="532" type="line"/>
      <point x="82" y="764" type="line"/>
      <point x="137" y="764" type="line"/>
    </contour>
  </outline>
</glyph>
<glyph name="two" format="1">
  <advance width="390"/>
  <unicode hex="0032"/>
  <outline>
    <contour>
      <point x="345" y="0" type="line"/>
      <point x="42" y="0" type="line"/>
      <point x="42" y="36" type="line"/>
      <point x="276" y="522" type="line"/>
      <point x="276" y="704" type="line"/>
      <point x="120" y="704" type="line"/>
      <point x="120" y="532" type="line"/>
      <point x="52" y="532" type="line"/>
      <point x="52" y="710" type="line" smooth="yes"/>
      <point x="52" y="742"/>
      <point x="74" y="764"/>
      <point x="106" y="764" type="curve" smooth="yes"/>
      <point x="290" y="764" type="line" smooth="yes"/>
      <point x="322" y="764"/>
      <point x="344" y="742"/>
      <point x="344" y="710" type="curve" smooth="yes"/>
      <point x="344" y="548" type="line" smooth="yes"/>
      <point x="344" y="522"/>
      <point x="337" y="504"/>
      <point x="326" y="481" type="curve" smooth="yes"/>
      <point x="124" y="60" type="line"/>
      <point x="345" y="60" type="line"/>
    </contour>
  </outline>
</glyph>
<glyph name="three" format="2">
  <advance width="422"/>
  <unicode hex="0033"/>
  <outline>
    <contour>
      <point x="366" y="54" type="line"/>
      <point x="366" y="22"/>
      <point x="344" y="0"/>
      <point x="312" y="0" type="curve" smooth="yes"/>
      <point x="115" y="0" type="line" smooth="yes"/>
      <point x="83" y="0"/>
      <point x="61" y="22"/>
      <point x="61" y="54" type="curve" smooth="yes"/>
      <point x="61" y="248" type="line"/>
      <point x="129" y="248" type="line"/>
      <point x="129" y="60" type="line"/>
      <point x="298" y="60" type="line"/>
      <point x="298" y="294" type="line"/>
      <point x="163" y="395" type="line"/>
      <point x="163" y="410" type="line"/>
      <point x="297" y="510" type="line"/>
      <point x="297" y="704" type="line"/>
      <point x="130" y="704" type="line"/>
      <point x="130" y="532" type="line"/>
      <point x="62" y="532" type="line"/>
      <point x="62" y="710" type="line" smooth="yes"/>
      <point x="62" y="742"/>
      <point x="84" y="764"/>
      <point x="116" y="764" type="curve" smooth="yes"/>
      <point x="311" y="764" type="line" smooth="yes"/>
      <point x="343" y="764"/>
      <point x="365" y="742"/>
      <point x="365" y="710" type="curve" smooth="yes"/>
      <point x="365" y="524" type="line" smooth="yes"/>
      <point x="365" y="498"/>
      <point x="357" y="482"/>
      <point x="336" y="467" type="curve" smooth="yes"/>
      <point x="245" y="403" type="line"/>
      <point x="337" y="339" type="line" smooth="yes"/>
      <point x="358" y="324"/>
      <point x="366" y="307"/>
      <point x="366" y="281" type="curve" smooth="yes"/>
    </contour>
  </outline>
</glyph>
<glyph name="five" format="1">
  <advance width="411"/>
  <unicode hex="0035"/>
  <outline>
    <contour>
      <point x="355" y="54" type="line"/>
      <point x="355" y="22"/>
      <point x="333" y="0"/>
      <point x="301" y="0" type="curve" smooth="yes"/>
      <point x="113" y="0" type="line" smooth="yes"/>
      <point x="81" y="0"/>
      <point x="59" y="22"/>
      <point x="59" y="54" type="curve" smooth="yes"/>
      <point x="59" y="248" type="line"/>
      <point x="127" y="248" type="line"/>
      <point x="127" y="60" type="line"/>
      <point x="287" y="60" type="line"/>
      <point x="287" y="420" type="line"/>
      <point x="61" y="420" type="line"/>
      <point x="70" y="764" type="line"/>
      <point x="349" y="764" type="line"/>
      <point x="349" y="704" type="line"/>
      <point x="136" y="704" type="line"/>
      <point x="128" y="480" type="line"/>
      <point x="301" y="480" type="line" smooth="yes"/>
      <point x="333" y="480"/>
      <point x="355" y="458"/>
      <point x="355" y="426" type="curve" smooth="yes"/>
    </contour>
  </outline>
</glyph>
<glyph name="six" format="1">
  <advance width="424"/>
  <unicode hex="0036"/>
  <outline>
    <contour>
      <point x="364" y="54" type="line"/>
      <point x="364" y="22"/>
      <point x="342" y="0"/>
      <point x="310" y="0" type="curve" smooth="yes"/>
      <point x="115" y="0" type="line" smooth="yes"/>
      <point x="83" y="0"/>
      <point x="61" y="22"/>
      <point x="61" y="54" type="curve" smooth="yes"/>
      <point x="61" y="710" type="line" smooth="yes"/>
      <point x="61" y="742"/>
      <point x="83" y="764"/>
      <point x="115" y="764" type="curve" smooth="yes"/>
      <point x="308" y="764" type="line" smooth="yes"/>
      <point x="340" y="764"/>
      <point x="362" y="742"/>
      <point x="362" y="710" type="curve" smooth="yes"/>
      <point x="362" y="541" type="line"/>
      <point x="294" y="541" type="line"/>
      <point x="294" y="704" type="line"/>
      <point x="129" y="704" type="line"/>
      <point x="129" y="421" type="line"/>
      <point x="310" y="421" type="line" smooth="yes"/>
      <point x="342" y="421"/>
      <point x="364" y="399"/>
      <point x="364" y="367" type="curve" smooth="yes"/>
    </contour>
    <contour>
      <point x="296" y="60" type="line"/>
      <point x="296" y="362" type="line"/>
      <point x="129" y="362" type="line"/>
      <point x="129" y="60" type="line"/>
    </contour>
  </outline>
</glyph>
<glyph name="seven" format="1">
  <advance width="363"/>
  <unicode hex="0037"/>
  <outline>
    <contour>
      <point x="338" y="729" type="line"/>
      <point x="174" y="0" type="line"/>
      <point x="107" y="0" type="line"/>
      <point x="266" y="704" type="line"/>
      <point x="103" y="704" type="line"/>
      <point x="103" y="592" type="line"/>
      <point x="35" y="592" type="line"/>
      <point x="35" y="764" type="line"/>
      <point x="338" y="764" type="line"/>
    </contour>
  </outline>
</glyph>
<glyph name="eight" format="1">
  <advance width="431"/>
  <unicode hex="0038"/>
  <outline>
    <contour>
      <point x="369" y="54" type="line"/>
      <point x="369" y="22"/>
      <point x="346" y="0"/>
      <point x="314" y="0" type="curve" smooth="yes"/>
      <point x="113" y="0" type="line" smooth="yes"/>
      <point x="81" y="0"/>
      <point x="59" y="22"/>
      <point x="59" y="54" type="curve" smooth="yes"/>
      <point x="59" y="303" type="line" smooth="yes"/>
      <point x="59" y="326"/>
      <point x="66" y="340"/>
      <point x="84" y="352" type="curve" smooth="yes"/>
      <point x="158" y="400" type="line"/>
      <point x="86" y="445" type="line" smooth="yes"/>
      <point x="68" y="456"/>
      <point x="61" y="471"/>
      <point x="61" y="494" type="curve" smooth="yes"/>
      <point x="61" y="710" type="line" smooth="yes"/>
      <point x="61" y="742"/>
      <point x="83" y="764"/>
      <point x="115" y="764" type="curve" smooth="yes"/>
      <point x="313" y="764" type="line" smooth="yes"/>
      <point x="345" y="764"/>
      <point x="367" y="742"/>
      <point x="367" y="710" type="curve" smooth="yes"/>
      <point x="367" y="494" type="line" smooth="yes"/>
      <point x="367" y="471"/>
      <point x="360" y="456"/>
      <point x="342" y="445" type="curve" smooth="yes"/>
      <point x="270" y="400" type="line"/>
      <point x="343" y="352" type="line" smooth="yes"/>
      <point x="362" y="340"/>
      <point x="369" y="326"/>
      <point x="369" y="303" type="curve" smooth="yes"/>
    </contour>
    <contour>
      <point x="299" y="485" type="line"/>
      <point x="299" y="704" type="line"/>
      <point x="129" y="704" type="line"/>
      <point x="129" y="485" type="line"/>
      <point x="214" y="428" type="line"/>
    </contour>
    <contour>
      <point x="301" y="60" type="line"/>
      <point x="301" y="313" type="line"/>
      <point x="214" y="370" type="line"/>
      <point x="127" y="313" type="line"/>
      <point x="127" y="60" type="line"/>
    </contour>
  </outline>
</glyph>
<glyph name="nine" format="1">
  <advance width="424"/>
  <unicode hex="0039"/>
  <outline>
    <contour>
      <point x="361" y="54" type="line"/>
      <point x="361" y="22"/>
      <point x="339" y="0"/>
      <point x="307" y="0" type="curve" smooth="yes"/>
      <point x="116" y="0" type="line" smooth="yes"/>
      <point x="84" y="0"/>
      <point x="61" y="22"/>
      <point x="61" y="54" type="curve" smooth="yes"/>
      <point x="61" y="223" type="line"/>
      <point x="129" y="223" type="line"/>
      <point x="129" y="60" type="line"/>
      <point x="293" y="60" type="line"/>
      <point x="293" y="343" type="line"/>
      <point x="112" y="343" type="line" smooth="yes"/>
      <point x="80" y="343"/>
      <point x="58" y="365"/>
      <point x="58" y="397" type="curve" smooth="yes"/>
      <point x="58" y="710" type="line" smooth="yes"/>
      <point x="58" y="742"/>
      <point x="80" y="764"/>
      <point x="112" y="764" type="curve" smooth="yes"/>
      <point x="307" y="764" type="line" smooth="yes"/>
      <point x="339" y="764"/>
      <point x="361" y="742"/>
      <point x="361" y="710" type="curve" smooth="yes"/>
    </contour>
    <contour>
      <point x="293" y="402" type="line"/>
      <point x="293" y="704" type="line"/>
      <point x="126" y="704" type="line"/>
      <point x="126" y="402" type="line"/>
    </contour>
  </outline>
</glyph>
<glyph name="colon" format="1">
  <advance width="166"/>
  <unicode hex="003A"/>
  <outline>
    <contour>
      <point x="120" y="330" type="line"/>
      <point x="46" y="330" type="line"/>
      <point x="46" y="416" type="line"/>
      <point x="120" y="416" type="line"/>
    </contour>
    <contour>
      <point x="120" y="0" type="line"/>
      <point x="46" y="0" type="line"/>
      <point x="46" y="86" type="line"/>
      <point x="120" y="86" type="line"/>
    </contour>
  </outline>
</glyph>
<glyph name="semicolon" format="2">
  <advance width="166"/>
  <unicode hex="003B"/>
  <outline>
    <contour>
      <point x="120" y="330" type="line"/>
      <point x="46" y="330" type="line"/>
      <point x="46" y="416" type="line"/>
      <point x="120" y="416" type="line"/>
    </contour>
    <contour>
      <point x="123" y="86" type="line"/>
      <point x="79" y="-54" type="line"/>
      <point x="32" y="-54" type="line"/>
      <point x="46" y="86" type="line"/>
    </contour>
  </outline>
</glyph>
<glyph name="less" format="2">
  <advance width="341"/>
  <unicode hex="003C"/>
  <outline>
    <contour>
      <point x="285" y="118" type="line"/>
      <point x="282" y="118" type="line"/>
      <point x="37" y="302" type="line"/>
      <point x="37" y="337" type="line"/>
      <point x="282" y="522" type="line"/>
      <point x="285" y="522" type="line"/>
      <point x="285" y="454" type="line"/>
      <point x="104" y="320" type="line"/>
      <point x="285" y="186" type="line"/>
    </contour>
  </outline>
</glyph>
<glyph name="equal" format="2">
  <advance width="441"/>
  <unicode hex="003D"/>
  <outline>
    <contour>
      <point x="391" y="369" type="line"/>
      <point x="50" y="369" type="line"/>
      <point x="50" y="428" type="line"/>
      <point x="391" y="428" type="line"/>
    </contour>
    <contour>
      <point x="391" y="191" type="line"/>
      <point x="50" y="191" type="line"/>
      <point x="50" y="249" type="line"/>
      <point x="391" y="249" type="line"/>
    </contour>
  </outline>
</glyph>
<glyph name="question" format="1">
  <advance width="382"/>
  <unicode hex="003F"/>
  <outline>
    <contour>
      <point x="336" y="538" type="line"/>
      <point x="336" y="518"/>
      <point x="331" y="501"/>
      <point x="321" y="486" type="curve" smooth="yes"/>
      <point x="221" y="334" type="line"/>
      <point x="221" y="172" type="line"/>
      <point x="153" y="172" type="line"/>
      <point x="153" y="318" type="line" smooth="yes"/>
      <point x="153" y="339"/>
      <point x="157" y="355"/>
      <point x="167" y="371" type="curve" smooth="yes"/>
      <point x="268" y="522" type="line"/>
      <point x="268" y="704" type="line"/>
      <point x="112" y="704" type="line"/>
      <point x="112" y="532" type="line"/>
      <point x="44" y="532" type="line"/>
      <point x="44" y="710" type="line" smooth="yes"/>
      <point x="44" y="742"/>
      <point x="67" y="764"/>
      <point x="99" y="764" type="curve" smooth="yes"/>
      <point x="281" y="764" type="line" smooth="yes"/>
      <point x="313" y="764"/>
      <point x="336" y="742"/>
      <point x="336" y="710" type="curve" smooth="yes"/>
    </contour>
    <contour>
      <point x="224" y="0" type="line"/>
      <point x="150" y="0" type="line"/>
      <point x="150" y="86" type="line"/>
      <point x="224" y="86" type="line"/>
    </contour>
  </outline>
</glyph>
<glyph name="at" format="1">
  <advance width="564"/>
  <unicode hex="0040"/>
  <outline>
    <contour>
      <point x="503" y="0" type="line"/>
      <point x="93" y="0" type="line" smooth="yes"/>
      <point x="73" y="0"/>
      <point x="61" y="12"/>
      <point x="61" y="32" type="curve" smooth="yes"/>
      <point x="61" y="732" type="line" smooth="yes"/>
      <point x="61" y="752"/>
      <point x="73" y="764"/>
      <point x="93" y="764" type="curve" smooth="yes"/>
      <point x="471" y="764" type="line" smooth="yes"/>
      <point x="491" y="764"/>
      <point x="503" y="752"/>
      <point x="503" y="732" type="curve" smooth="yes"/>
      <point x="503" y="201" type="line" smooth="yes"/>
      <point x="503" y="181"/>
      <point x="491" y="169"/>
      <point x="471" y="169" type="curve" smooth="yes"/>
      <point x="223" y="169" type="line" smooth="yes"/>
      <point x="202" y="169"/>
      <point x="188" y="183"/>
      <point x="188" y="203" type="curve" smooth="yes"/>
      <point x="188" y="383" type="line" smooth="yes"/>
      <point x="188" y="404"/>
      <point x="202" y="418"/>
      <point x="223" y="418" type="curve" smooth="yes"/>
      <point x="325" y="418" type="line"/>
      <point x="325" y="554" type="line"/>
      <point x="241" y="554" type="line"/>
      <point x="241" y="474" type="line"/>
      <point x="192" y="474" type="line"/>
      <point x="192" y="564" type="line" smooth="yes"/>
      <point x="192" y="585"/>
      <point x="206" y="599"/>
      <point x="227" y="599" type="curve" smooth="yes"/>
      <point x="339" y="599" type="line" smooth="yes"/>
      <point x="360" y="599"/>
      <point x="374" y="585"/>
      <point x="374" y="564" type="curve" smooth="yes"/>
      <point x="374" y="206" type="line"/>
      <point x="466" y="206" type="line"/>
      <point x="466" y="730" type="line"/>
      <point x="98" y="730" type="line"/>
      <point x="98" y="34" type="line"/>
      <point x="503" y="34" type="line"/>
    </contour>
    <contour>
      <point x="325" y="213" type="line"/>
      <point x="325" y="374" type="line"/>
      <point x="238" y="374" type="line"/>
      <point x="238" y="213" type="line"/>
    </contour>
  </outline>
</glyph>
<glyph name="A" format="2">
  <advance width="400"/>
  <unicode hex="0041"/>
  <anchor x="200.0" y="764" name="top"/>
  <anchor x="200.0" y="0" name="bottom"/>
  <anchor x="327" y="0" name="ogonek"/>
  <outline>
    <contour>
      <point x="369" y="0" type="line"/>
      <point x="302" y="0" type="line"/>
      <point x="275" y="170" type="line"/>
      <point x="123" y="170" type="line"/>
      <point x="96" y="0" type="line"/>
      <point x="31" y="0" type="line"/>
      <point x="31" y="2" type="line"/>
      <point x="167" y="766" type="line"/>
      <point x="234" y="766" type="line"/>
      <point x="369" y="2" type="line"/>
    </contour>
    <contour>
      <point x="266" y="230" type="line"/>
      <point x="199" y="644" type="line"/>
      <point x="132" y="230" type="line"/>
    </contour>
  </outline>
</glyph>
<glyph name="B" format="1">
  <advance width="425"/>
  <unicode hex="0042"/>
  <outline>
    <contour>
      <point x="367" y="54" type="line"/>
      <point x="367" y="22"/>
      <point x="345" y="0"/>
      <point x="313" y="0" type="curve" smooth="yes"/>
      <point x="61" y="0" type="line"/>
      <point x="61" y="764" type="line"/>
      <point x="311" y="764" type="line" smooth="yes"/>
      <point x="343" y="764"/>
      <point x="365" y="742"/>
      <point x="365" y="710" type="curve" smooth="yes"/>
      <point x="365" y="483" type="line" smooth="yes"/>
      <point x="365" y="460"/>
      <point x="358" y="446"/>
      <point x="340" y="435" type="curve" smooth="yes"/>
      <point x="284" y="400" type="line"/>
      <point x="342" y="363" type="line" smooth="yes"/>
      <point x="360" y="351"/>
      <point x="367" y="337"/>
      <point x="367" y="314" type="curve" smooth="yes"/>
    </contour>
    <contour>
      <point x="297" y="474" type="line"/>
      <point x="297" y="704" type="line"/>
      <point x="129" y="704" type="line"/>
      <point x="129" y="428" type="line"/>
      <point x="229" y="428" type="line"/>
    </contour>
    <contour>
      <point x="299" y="60" type="line"/>
      <point x="299" y="324" type="line"/>
      <point x="230" y="369" type="line"/>
      <point x="129" y="369" type="line"/>
      <point x="129" y="60" type="line"/>
    </contour>
  </outline>
</glyph>
<glyph name="C" format="2">
  <advance width="425"/>
  <unicode hex="0043"/>
  <anchor x="212.5" y="764" name="top"/>
  <outline>
    <contour>
      <point x="367" y="54" type="line"/>
      <point x="367" y="22"/>
      <point x="344" y="0"/>
      <point x="312" y="0" type="curve" smooth="yes"/>
      <point x="115" y="0" type="line" smooth="yes"/>
      <point x="83" y="0"/>
      <point x="61" y="22"/>
      <point x="61" y="54" type="curve" smooth="yes"/>
      <point x="61" y="710" type="line" smooth="yes"/>
      <point x="61" y="742"/>
      <point x="83" y="764"/>
      <point x="115" y="764" type="curve" smooth="yes"/>
      <point x="312" y="764" type="line" smooth="yes"/>
      <point x="344" y="764"/>
      <point x="367" y="742"/>
      <point x="367" y="710" type="curve" smooth="yes"/>
      <point x="367" y="532" type="line"/>
      <point x="299" y="532" type="line"/>
      <point x="299" y="704" type="line"/>
      <point x="129" y="704" type="line"/>
      <point x="129" y="60" type="line"/>
      <point x="299" y="60" type="line"/>
      <point x="299" y="248" type="line"/>
      <point x="367" y="248" type="line"/>
    </contour>
  </outline>
</glyph>
<glyph name="D" format="2">
  <advance width="434"/>
  <unicode hex="0044"/>
  <anchor x="217.0" y="0" name="bottom"/>
  <anchor x="207.0" y="764" name="top"/>
  <outline>
    <contour>
      <point x="376" y="138" type="line"/>
      <point x="376" y="61"/>
      <point x="320" y="0"/>
      <point x="236" y="0" type="curve" smooth="yes"/>
      <point x="61" y="0" type="line"/>
      <point x="61" y="764" type="line"/>
      <point x="236" y="764" type="line" smooth="yes"/>
      <point x="322" y="764"/>
      <point x="376" y="702"/>
      <point x="376" y="626" type="curve" smooth="yes"/>
    </contour>
    <contour>
      <point x="308" y="145" type="curve" smooth="yes"/>
      <point x="308" y="620" type="line" smooth="yes"/>
      <point x="308" y="670"/>
      <point x="274" y="704"/>
      <point x="223" y="704" type="curve" smooth="yes"/>
      <point x="129" y="704" type="line"/>
      <point x="129" y="60" type="line"/>
      <point x="219" y="60" type="line" smooth="yes"/>
      <point x="277" y="60"/>
      <point x="308" y="97"/>
    </contour>
  </outline>
</glyph>
<glyph name="E" format="2">
  <advance width="357"/>
  <unicode hex="0045"/>
  <anchor x="189" y="764" name="top"/>
  <anchor x="178.5" y="0" name="bottom"/>
  <anchor x="237" y="0" name="ogonek"/>
  <outline>
    <contour>
      <point x="312" y="0" type="line"/>
      <point x="61" y="0" type="line"/>
      <point x="61" y="764" type="line"/>
      <point x="309" y="764" type="line"/>
      <point x="309" y="704" type="line"/>
      <point x="129" y="704" type="line"/>
      <point x="129" y="419" type="line"/>
      <point x="293" y="419" type="line"/>
      <point x="293" y="358" type="line"/>
      <point x="129" y="358" type="line"/>
      <point x="129" y="60" type="line"/>
      <point x="312" y="60" type="line"/>
    </contour>
  </outline>
</glyph>
<glyph name="F" format="2">
  <advance width="340"/>
  <unicode hex="0046"/>
  <outline>
    <contour>
      <point x="307" y="704" type="line"/>
      <point x="129" y="704" type="line"/>
      <point x="129" y="414" type="line"/>
      <point x="293" y="414" type="line"/>
      <point x="293" y="353" type="line"/>
      <point x="129" y="353" type="line"/>
      <point x="129" y="0" type="line"/>
      <point x="61" y="0" type="line"/>
      <point x="61" y="764" type="line"/>
      <point x="307" y="764" type="line"/>
    </contour>
  </outline>
</glyph>
<glyph name="H" format="2">
  <advance width="442"/>
  <unicode hex="0048"/>
  <anchor x="221.0" y="0" name="bottom"/>
  <anchor x="221.0" y="764" name="top"/>
  <outline>
    <contour>
      <point x="381" y="0" type="line"/>
      <point x="313" y="0" type="line"/>
      <point x="313" y="367" type="line"/>
      <point x="129" y="367" type="line"/>
      <point x="129" y="0" type="line"/>
      <point x="61" y="0" type="line"/>
      <point x="61" y="764" type="line"/>
      <point x="129" y="764" type="line"/>
      <point x="129" y="428" type="line"/>
      <point x="313" y="428" type="line"/>
      <point x="313" y="764" type="line"/>
      <point x="381" y="764" type="line"/>
    </contour>
  </outline>
</glyph>
<glyph name="I" format="1">
  <advance width="199"/>
  <unicode hex="0049"/>
  <outline>
    <contour>
      <point x="133" y="0" type="line"/>
      <point x="65" y="0" type="line"/>
      <point x="65" y="764" type="line"/>
      <point x="133" y="764" type="line"/>
    </contour>
  </outline>
</glyph>
<glyph name="J" format="2">
  <advance width="391"/>
  <unicode hex="004A"/>
  <anchor x="297" y="764" name="top"/>
  <outline>
    <contour>
      <point x="330" y="54" type="line"/>
      <point x="330" y="22"/>
      <point x="308" y="0"/>
      <point x="276" y="0" type="curve" smooth="yes"/>
      <point x="98" y="0" type="line" smooth="yes"/>
      <point x="66" y="0"/>
      <point x="44" y="22"/>
      <point x="44" y="54" type="curve" smooth="yes"/>
      <point x="44" y="248" type="line"/>
      <point x="112" y="248" type="line"/>
      <point x="112" y="60" type="line"/>
      <point x="262" y="60" type="line"/>
      <point x="262" y="764" type="line"/>
      <point x="330" y="764" type="line"/>
    </contour>
  </outline>
</glyph>
<glyph name="K" format="1">
  <advance width="385"/>
  <unicode hex="004B"/>
  <outline>
    <contour>
      <point x="380" y="0" type="line"/>
      <point x="305" y="0" type="line"/>
      <point x="129" y="367" type="line"/>
      <point x="129" y="0" type="line"/>
      <point x="61" y="0" type="line"/>
      <point x="61" y="764" type="line"/>
      <point x="129" y="764" type="line"/>
      <point x="129" y="421" type="line"/>
      <point x="289" y="764" type="line"/>
      <point x="363" y="764" type="line"/>
      <point x="363" y="760" type="line"/>
      <point x="190" y="396" type="line"/>
      <point x="380" y="4" type="line"/>
    </contour>
  </outline>
</glyph>
<glyph name="L" format="2">
  <advance width="337"/>
  <unicode hex="004C"/>
  <anchor x="189" y="0" name="bottom"/>
  <anchor x="95" y="764" name="top"/>
  <anchor x="245" y="550" name="caron.vert"/>
  <outline>
    <contour>
      <point x="305" y="0" type="line"/>
      <point x="61" y="0" type="line"/>
      <point x="61" y="764" type="line"/>
      <point x="129" y="764" type="line"/>
      <point x="129" y="60" type="line"/>
      <point x="305" y="60" type="line"/>
    </contour>
  </outline>
</glyph>
<glyph name="M" format="2">
  <advance width="500"/>
  <unicode hex="004D"/>
  <anchor x="250.0" y="0" name="bottom"/>
  <outline>
    <contour>
      <point x="439" y="0" type="line"/>
      <point x="375" y="0" type="line"/>
      <point x="375" y="484" type="line" smooth="yes"/>
      <point x="375" y="494"/>
      <point x="382" y="544"/>
      <point x="382" y="544" type="curve"/>
      <point x="257" y="72" type="line"/>
      <point x="243" y="72" type="line"/>
      <point x="118" y="544" type="line"/>
      <point x="118" y="544"/>
      <point x="125" y="494"/>
      <point x="125" y="484" type="curve" smooth="yes"/>
      <point x="125" y="0" type="line"/>
      <point x="61" y="0" type="line"/>
      <point x="61" y="764" type="line"/>
      <point x="124" y="764" type="line"/>
      <point x="248" y="267" type="line" smooth="yes"/>
      <point x="249" y="263"/>
      <point x="250" y="245"/>
      <point x="250" y="245" type="curve"/>
      <point x="250" y="245"/>
      <point x="251" y="263"/>
      <point x="252" y="267" type="curve" smooth="yes"/>
      <point x="376" y="764" type="line"/>
      <point x="439" y="764" type="line"/>
    </contour>
  </outline>
</glyph>
<glyph name="N" format="1">
  <advance width="437"/>
  <unicode hex="004E"/>
  <outline>
    <contour>
      <point x="376" y="0" type="line"/>
      <point x="329" y="0" type="line"/>
      <point x="125" y="562" type="line"/>
      <point x="125" y="0" type="line"/>
      <point x="61" y="0" type="line"/>
      <point x="61" y="764" type="line"/>
      <point x="112" y="764" type="line"/>
      <point x="312" y="212" type="line"/>
      <point x="312" y="764" type="line"/>
      <point x="376" y="764" type="line"/>
    </contour>
  </outline>
</glyph>
<glyph name="O" format="2">
  <advance width="445"/>
  <unicode hex="004F"/>
  <anchor x="223" y="764" name="top"/>
  <anchor x="445" y="764" name="horn"/>
  <anchor x="222.5" y="0" name="bottom"/>
  <outline>
    <contour>
      <point x="384" y="54" type="line"/>
      <point x="384" y="22"/>
      <point x="361" y="0"/>
      <point x="329" y="0" type="curve" smooth="yes"/>
      <point x="115" y="0" type="line" smooth="yes"/>
      <point x="83" y="0"/>
      <point x="61" y="22"/>
      <point x="61" y="54" type="curve" smooth="yes"/>
      <point x="61" y="710" type="line" smooth="yes"/>
      <point x="61" y="742"/>
      <point x="83" y="764"/>
      <point x="115" y="764" type="curve" smooth="yes"/>
      <point x="329" y="764" type="line" smooth="yes"/>
      <point x="361" y="764"/>
      <point x="384" y="742"/>
      <point x="384" y="710" type="curve" smooth="yes"/>
    </contour>
    <contour>
      <point x="316" y="60" type="line"/>
      <point x="316" y="704" type="line"/>
      <point x="129" y="704" type="line"/>
      <point x="129" y="60" type="line"/>
    </contour>
  </outline>
</glyph>
<glyph name="P" format="1">
  <advance width="410"/>
  <unicode hex="0050"/>
  <outline>
    <contour>
      <point x="364" y="358" type="line"/>
      <point x="364" y="326"/>
      <point x="341" y="303"/>
      <point x="309" y="303" type="curve" smooth="yes"/>
      <point x="129" y="303" type="line"/>
      <point x="129" y="0" type="line"/>
      <point x="61" y="0" type="line"/>
      <point x="61" y="764" type="line"/>
      <point x="309" y="764" type="line" smooth="yes"/>
      <point x="341" y="764"/>
      <point x="364" y="742"/>
      <point x="364" y="710" type="curve" smooth="yes"/>
    </contour>
    <contour>
      <point x="296" y="364" type="line"/>
      <point x="296" y="704" type="line"/>
      <point x="129" y="704" type="line"/>
      <point x="129" y="364" type="line"/>
    </contour>
  </outline>
</glyph>
<glyph name="Q" format="2">
  <advance width="450"/>
  <unicode hex="0051"/>
  <outline>
    <contour>
      <point x="436" y="-1" type="line"/>
      <point x="430" y="-1" type="line"/>
      <point x="380" y="40" type="line"/>
      <point x="379" y="36" type="line" smooth="yes"/>
      <point x="373" y="13"/>
      <point x="353" y="0"/>
      <point x="330" y="0" type="curve" smooth="yes"/>
      <point x="115" y="0" type="line" smooth="yes"/>
      <point x="83" y="0"/>
      <point x="61" y="22"/>
      <point x="61" y="54" type="curve" smooth="yes"/>
      <point x="61" y="710" type="line" smooth="yes"/>
      <point x="61" y="742"/>
      <point x="83" y="764"/>
      <point x="115" y="764" type="curve" smooth="yes"/>
      <point x="330" y="764" type="line" smooth="yes"/>
      <point x="362" y="764"/>
      <point x="384" y="742"/>
      <point x="384" y="710" type="curve" smooth="yes"/>
      <point x="384" y="108" type="line"/>
      <point x="436" y="66" type="line"/>
    </contour>
    <contour>
      <point x="316" y="60" type="line"/>
      <point x="316" y="90" type="line"/>
      <point x="235" y="157" type="line"/>
      <point x="235" y="224" type="line"/>
      <point x="241" y="224" type="line"/>
      <point x="316" y="162" type="line"/>
      <point x="316" y="704" type="line"/>
      <point x="129" y="704" type="line"/>
      <point x="129" y="60" type="line"/>
    </contour>
  </outline>
</glyph>
<glyph name="R" format="2">
  <advance width="427"/>
  <unicode hex="0052"/>
  <anchor x="213.5" y="764" name="top"/>
  <anchor x="213.5" y="0" name="bottom"/>
  <outline>
    <contour>
      <point x="386" y="0" type="line"/>
      <point x="315" y="0" type="line"/>
      <point x="173" y="409" type="line"/>
      <point x="182" y="423" type="line"/>
      <point x="303" y="423" type="line"/>
      <point x="303" y="704" type="line"/>
      <point x="129" y="704" type="line"/>
      <point x="129" y="0" type="line"/>
      <point x="61" y="0" type="line"/>
      <point x="61" y="764" type="line"/>
      <point x="317" y="764" type="line" smooth="yes"/>
      <point x="349" y="764"/>
      <point x="371" y="742"/>
      <point x="371" y="710" type="curve" smooth="yes"/>
      <point x="371" y="420" type="line" smooth="yes"/>
      <point x="371" y="388"/>
      <point x="349" y="366"/>
      <point x="319" y="366" type="curve" smooth="yes"/>
      <point x="255" y="366" type="line"/>
      <point x="386" y="1" type="line"/>
    </contour>
  </outline>
</glyph>
<glyph name="S" format="2">
  <advance width="418"/>
  <unicode hex="0053"/>
  <anchor x="209.0" y="764" name="top"/>
  <anchor x="209.0" y="0" name="bottom"/>
  <outline>
    <contour>
      <point x="359" y="54" type="line"/>
      <point x="359" y="22"/>
      <point x="337" y="0"/>
      <point x="305" y="0" type="curve" smooth="yes"/>
      <point x="113" y="0" type="line" smooth="yes"/>
      <point x="81" y="0"/>
      <point x="58" y="22"/>
      <point x="58" y="54" type="curve" smooth="yes"/>
      <point x="58" y="248" type="line"/>
      <point x="126" y="248" type="line"/>
      <point x="126" y="60" type="line"/>
      <point x="291" y="60" type="line"/>
      <point x="291" y="242" type="line"/>
      <point x="80" y="497" type="line" smooth="yes"/>
      <point x="64" y="516"/>
      <point x="58" y="529"/>
      <point x="58" y="555" type="curve" smooth="yes"/>
      <point x="58" y="710" type="line" smooth="yes"/>
      <point x="58" y="742"/>
      <point x="81" y="764"/>
      <point x="113" y="764" type="curve" smooth="yes"/>
      <point x="305" y="764" type="line" smooth="yes"/>
      <point x="337" y="764"/>
      <point x="359" y="742"/>
      <point x="359" y="710" type="curve" smooth="yes"/>
      <point x="359" y="532" type="line"/>
      <point x="291" y="532" type="line"/>
      <point x="291" y="704" type="line"/>
      <point x="126" y="704" type="line"/>
      <point x="126" y="543" type="line"/>
      <point x="338" y="288" type="line" smooth="yes"/>
      <point x="354" y="269"/>
      <point x="359" y="256"/>
      <point x="359" y="231" type="curve" smooth="yes"/>
    </contour>
  </outline>
</glyph>
<glyph name="T" format="2">
  <advance width="343"/>
  <unicode hex="0054"/>
  <anchor x="171.5" y="0" name="bottom"/>
  <anchor x="171.5" y="764" name="top"/>
  <outline>
    <contour>
      <point x="324" y="704" type="line"/>
      <point x="206" y="704" type="line"/>
      <point x="206" y="0" type="line"/>
      <point x="138" y="0" type="line"/>
      <point x="138" y="704" type="line"/>
      <point x="19" y="704" type="line"/>
      <point x="19" y="764" type="line"/>
      <point x="324" y="764" type="line"/>
    </contour>
  </outline>
</glyph>
<glyph name="U" format="2">
  <advance width="439"/>
  <unicode hex="0055"/>
  <anchor x="219.5" y="764" name="top"/>
  <anchor x="219.5" y="0" name="bottom"/>
  <anchor x="301" y="0" name="ogonek"/>
  <outline>
    <contour>
      <point x="378" y="54" type="line"/>
      <point x="378" y="22"/>
      <point x="355" y="0"/>
      <point x="323" y="0" type="curve" smooth="yes"/>
      <point x="115" y="0" type="line" smooth="yes"/>
      <point x="83" y="0"/>
      <point x="61" y="22"/>
      <point x="61" y="54" type="curve" smooth="yes"/>
      <point x="61" y="764" type="line"/>
      <point x="129" y="764" type="line"/>
      <point x="129" y="60" type="line"/>
      <point x="310" y="60" type="line"/>
      <point x="310" y="764" type="line"/>
      <point x="378" y="764" type="line"/>
    </contour>
  </outline>
</glyph>
<glyph name="V" format="2">
  <advance width="390"/>
  <unicode hex="0056"/>
  <outline>
    <contour>
      <point x="359" y="762" type="line"/>
      <point x="227" y="-2" type="line"/>
      <point x="163" y="-2" type="line"/>
      <point x="31" y="762" type="line"/>
      <point x="31" y="764" type="line"/>
      <point x="98" y="764" type="line"/>
      <point x="193" y="156" type="line"/>
      <point x="196" y="106" type="line"/>
      <point x="199" y="156" type="line"/>
      <point x="294" y="764" type="line"/>
      <point x="359" y="764" type="line"/>
    </contour>
  </outline>
</glyph>
<glyph name="X" format="1">
  <advance width="384"/>
  <unicode hex="0058"/>
  <outline>
    <contour>
      <point x="363" y="0" type="line"/>
      <point x="293" y="0" type="line"/>
      <point x="191" y="314" type="line"/>
      <point x="89" y="0" type="line"/>
      <point x="21" y="0" type="line"/>
      <point x="21" y="4" type="line"/>
      <point x="157" y="391" type="line"/>
      <point x="29" y="760" type="line"/>
      <point x="29" y="764" type="line"/>
      <point x="100" y="764" type="line"/>
      <point x="192" y="474" type="line"/>
      <point x="287" y="764" type="line"/>
      <point x="355" y="764" type="line"/>
      <point x="355" y="760" type="line"/>
      <point x="228" y="395" type="line"/>
      <point x="363" y="4" type="line"/>
    </contour>
  </outline>
</glyph>
<glyph name="Y" format="2">
  <advance width="390"/>
  <unicode hex="0059"/>
  <anchor x="195.0" y="764" name="top"/>
  <anchor x="195.0" y="0" name="bottom"/>
  <outline>
    <contour>
      <point x="368" y="760" type="line"/>
      <point x="229" y="296" type="line"/>
      <point x="229" y="0" type="line"/>
      <point x="161" y="0" type="line"/>
      <point x="161" y="296" type="line"/>
      <point x="22" y="760" type="line"/>
      <point x="22" y="764" type="line"/>
      <point x="91" y="764" type="line"/>
      <point x="196" y="382" type="line"/>
      <point x="300" y="764" type="line"/>
      <point x="368" y="764" type="line"/>
    </contour>
  </outline>
</glyph>
<glyph name="Z" format="2">
  <advance width="344"/>
  <unicode hex="005A"/>
  <anchor x="172.0" y="764" name="top"/>
  <anchor x="172.0" y="0" name="bottom"/>
  <outline>
    <contour>
      <point x="317" y="0" type="line"/>
      <point x="24" y="0" type="line"/>
      <point x="24" y="36" type="line"/>
      <point x="239" y="704" type="line"/>
      <point x="45" y="704" type="line"/>
      <point x="45" y="764" type="line"/>
      <point x="317" y="764" type="line"/>
      <point x="317" y="729" type="line"/>
      <point x="102" y="60" type="line"/>
      <point x="317" y="60" type="line"/>
    </contour>
  </outline>
</glyph>
<glyph name="bracketleft" format="1">
  <advance width="290"/>
  <unicode hex="005B"/>
  <outline>
    <contour>
      <point x="247" y="-121" type="line"/>
      <point x="117" y="-121" type="line" smooth="yes"/>
      <point x="85" y="-121"/>
      <point x="63" y="-99"/>
      <point x="63" y="-67" type="curve" smooth="yes"/>
      <point x="63" y="710" type="line" smooth="yes"/>
      <point x="63" y="742"/>
      <point x="85" y="764"/>
      <point x="117" y="764" type="curve" smooth="yes"/>
      <point x="247" y="764" type="line"/>
      <point x="247" y="704" type="line"/>
      <point x="131" y="704" type="line"/>
      <point x="131" y="-61" type="line"/>
      <point x="247" y="-61" type="line"/>
    </contour>
  </outline>
</glyph>
<glyph name="backslash" format="1">
  <advance width="432"/>
  <unicode hex="005C"/>
  <outline>
    <contour>
      <point x="410" y="0" type="line"/>
      <point x="345" y="0" type="line"/>
      <point x="22" y="760" type="line"/>
      <point x="22" y="764" type="line"/>
      <point x="87" y="764" type="line"/>
      <point x="410" y="4" type="line"/>
    </contour>
  </outline>
</glyph>
<glyph name="bracketright" format="1">
  <advance width="290"/>
  <unicode hex="005D"/>
  <outline>
    <contour>
      <point x="228" y="-67" type="line"/>
      <point x="228" y="-99"/>
      <point x="205" y="-121"/>
      <point x="173" y="-121" type="curve" smooth="yes"/>
      <point x="43" y="-121" type="line"/>
      <point x="43" y="-61" type="line"/>
      <point x="160" y="-61" type="line"/>
      <point x="160" y="704" type="line"/>
      <point x="43" y="704" type="line"/>
      <point x="43" y="764" type="line"/>
      <point x="173" y="764" type="line" smooth="yes"/>
      <point x="205" y="764"/>
      <point x="228" y="742"/>
      <point x="228" y="710" type="curve" smooth="yes"/>
    </contour>
  </outline>
</glyph>
<glyph name="asciicircum" format="2">
  <advance width="400"/>
  <unicode hex="005E"/>
  <outline>
    <contour>
      <point x="353" y="494" type="line"/>
      <point x="298" y="494" type="line"/>
      <point x="199" y="683" type="line"/>
      <point x="100" y="494" type="line"/>
      <point x="47" y="494" type="line"/>
      <point x="47" y="498" type="line"/>
      <point x="175" y="764" type="line"/>
      <point x="226" y="764" type="line"/>
      <point x="353" y="498" type="line"/>
    </contour>
  </outline>
</glyph>
<glyph name="underscore" format="2">
  <advance width="361"/>
  <unicode hex="005F"/>
  <outline>
    <contour>
      <point x="361" y="-200" type="line"/>
      <point x="0" y="-200" type="line"/>
      <point x="0" y="-146" type="line"/>
      <point x="361" y="-146" type="line"/>
    </contour>
  </outline>
</glyph>
<glyph name="grave" format="2">
  <advance width="400"/>
  <unicode hex="0060"/>
  <outline>
    <contour>
      <point x="306" y="517" type="line"/>
      <point x="261" y="517" type="line"/>
      <point x="141" y="630" type="line"/>
      <point x="141" y="632" type="line"/>
      <point x="233" y="632" type="line"/>
      <point x="306" y="520" type="line"/>
    </contour>
  </outline>
</glyph>
<glyph name="a" format="2">
  <advance width="375"/>
  <unicode hex="0061"/>
  <anchor x="189" y="475" name="top"/>
  <anchor x="187.5" y="0" name="bottom"/>
  <anchor x="274" y="0" name="ogonek"/>
  <outline>
    <contour>
      <point x="322" y="0" type="line"/>
      <point x="258" y="0" type="line"/>
      <point x="258" y="13" type="line"/>
      <point x="125" y="-1" type="line"/>
      <point x="117" y="-3"/>
      <point x="111" y="-3"/>
      <point x="104" y="-3" type="curve" smooth="yes"/>
      <point x="68" y="-3"/>
      <point x="51" y="14"/>
      <point x="51" y="50" type="curve" smooth="yes"/>
      <point x="51" y="223" type="line" smooth="yes"/>
      <point x="51" y="260"/>
      <point x="69" y="278"/>
      <point x="106" y="278" type="curve" smooth="yes"/>
      <point x="259" y="278" type="line"/>
      <point x="259" y="421" type="line"/>
      <point x="119" y="421" type="line"/>
      <point x="119" y="340" type="line"/>
      <point x="56" y="340" type="line"/>
      <point x="56" y="420" type="line" smooth="yes"/>
      <point x="56" y="457"/>
      <point x="74" y="475"/>
      <point x="111" y="475" type="curve" smooth="yes"/>
      <point x="267" y="475" type="line" smooth="yes"/>
      <point x="304" y="475"/>
      <point x="322" y="457"/>
      <point x="322" y="420" type="curve" smooth="yes"/>
    </contour>
    <contour>
      <point x="259" y="59" type="line"/>
      <point x="259" y="227" type="line"/>
      <point x="114" y="227" type="line"/>
      <point x="114" y="56" type="line"/>
    </contour>
  </outline>
</glyph>
<glyph name="c" format="1">
  <advance width="369"/>
  <unicode hex="0063"/>
  <outline>
    <contour>
      <point x="317" y="55" type="line"/>
      <point x="317" y="18"/>
      <point x="299" y="0"/>
      <point x="262" y="0" type="curve" smooth="yes"/>
      <point x="108" y="0" type="line" smooth="yes"/>
      <point x="71" y="0"/>
      <point x="53" y="18"/>
      <point x="53" y="55" type="curve" smooth="yes"/>
      <point x="53" y="420" type="line" smooth="yes"/>
      <point x="53" y="457"/>
      <point x="71" y="475"/>
      <point x="108" y="475" type="curve" smooth="yes"/>
      <point x="262" y="475" type="line" smooth="yes"/>
      <point x="299" y="475"/>
      <point x="317" y="457"/>
      <point x="317" y="420" type="curve" smooth="yes"/>
      <point x="317" y="325" type="line"/>
      <point x="253" y="325" type="line"/>
      <point x="253" y="418" type="line"/>
      <point x="118" y="418" type="line"/>
      <point x="118" y="57" type="line"/>
      <point x="253" y="57" type="line"/>
      <point x="253" y="163" type="line"/>
      <point x="317" y="163" type="line"/>
    </contour>
  </outline>
</glyph>
<glyph name="d" format="1">
  <advance width="377"/>
  <unicode hex="0064"/>
  <outline>
    <contour>
      <point x="323" y="0" type="line"/>
      <point x="259" y="0" type="line"/>
      <point x="259" y="13" type="line"/>
      <point x="174" y="0" type="line" smooth="yes"/>
      <point x="163" y="-2"/>
      <point x="154" y="-3"/>
      <point x="143" y="-3" type="curve" smooth="yes"/>
      <point x="91" y="-3"/>
      <point x="51" y="36"/>
      <point x="51" y="95" type="curve" smooth="yes"/>
      <point x="51" y="373" type="line" smooth="yes"/>
      <point x="51" y="430"/>
      <point x="92" y="475"/>
      <point x="152" y="475" type="curve" smooth="yes"/>
      <point x="259" y="475" type="line"/>
      <point x="259" y="764" type="line"/>
      <point x="323" y="764" type="line"/>
    </contour>
    <contour>
      <point x="259" y="59" type="line"/>
      <point x="259" y="418" type="line"/>
      <point x="169" y="418" type="line" smooth="yes"/>
      <point x="133" y="418"/>
      <point x="115" y="397"/>
      <point x="115" y="363" type="curve" smooth="yes"/>
      <point x="115" y="109" type="line" smooth="yes"/>
      <point x="115" y="76"/>
      <point x="133" y="54"/>
      <point x="169" y="54" type="curve" smooth="yes"/>
      <point x="175" y="54"/>
      <point x="191" y="54"/>
      <point x="197" y="55" type="curve"/>
    </contour>
  </outline>
</glyph>
<glyph name="e" format="1">
  <advance width="373"/>
  <unicode hex="0065"/>
  <outline>
    <contour>
      <point x="319" y="55" type="line"/>
      <point x="319" y="18"/>
      <point x="301" y="0"/>
      <point x="264" y="0" type="curve" smooth="yes"/>
      <point x="108" y="0" type="line" smooth="yes"/>
      <point x="71" y="0"/>
      <point x="53" y="18"/>
      <point x="53" y="55" type="curve" smooth="yes"/>
      <point x="53" y="420" type="line" smooth="yes"/>
      <point x="53" y="457"/>
      <point x="71" y="475"/>
      <point x="108" y="475" type="curve" smooth="yes"/>
      <point x="264" y="475" type="line" smooth="yes"/>
      <point x="301" y="475"/>
      <point x="319" y="457"/>
      <point x="319" y="420" type="curve" smooth="yes"/>
      <point x="319" y="249" type="line"/>
      <point x="297" y="226" type="line"/>
      <point x="116" y="226" type="line"/>
      <point x="116" y="54" type="line"/>
      <point x="256" y="54" type="line"/>
      <point x="256" y="141" type="line"/>
      <point x="319" y="141" type="line"/>
    </contour>
    <contour>
      <point x="256" y="278" type="line"/>
      <point x="256" y="421" type="line"/>
      <point x="116" y="421" type="line"/>
      <point x="116" y="278" type="line"/>
    </contour>
  </outline>
</glyph>
<glyph name="f" format="2">
  <advance width="238"/>
  <unicode hex="0066"/>
  <outline>
    <contour>
      <point x="233" y="707" type="line"/>
      <point x="141" y="707" type="line"/>
      <point x="141" y="475" type="line"/>
      <point x="222" y="475" type="line"/>
      <point x="222" y="418" type="line"/>
      <point x="141" y="418" type="line"/>
      <point x="141" y="0" type="line"/>
      <point x="77" y="0" type="line"/>
      <point x="77" y="418" type="line"/>
      <point x="22" y="418" type="line"/>
      <point x="22" y="475" type="line"/>
      <point x="77" y="475" type="line"/>
      <point x="77" y="709" type="line" smooth="yes"/>
      <point x="77" y="746"/>
      <point x="95" y="764"/>
      <point x="132" y="764" type="curve" smooth="yes"/>
      <point x="233" y="764" type="line"/>
    </contour>
  </outline>
</glyph>
<glyph name="g" format="1">
  <advance width="377"/>
  <unicode hex="0067"/>
  <outline>
    <contour>
      <point x="323" y="-125" type="line"/>
      <point x="323" y="-162"/>
      <point x="305" y="-180"/>
      <point x="268" y="-180" type="curve" smooth="yes"/>
      <point x="114" y="-180" type="line" smooth="yes"/>
      <point x="77" y="-180"/>
      <point x="59" y="-162"/>
      <point x="59" y="-125" type="curve" smooth="yes"/>
      <point x="59" y="-62" type="line"/>
      <point x="123" y="-62" type="line"/>
      <point x="123" y="-125" type="line"/>
      <point x="259" y="-125" type="line"/>
      <point x="259" y="0" type="line"/>
      <point x="152" y="0" type="line" smooth="yes"/>
      <point x="92" y="0"/>
      <point x="51" y="45"/>
      <point x="51" y="102" type="curve" smooth="yes"/>
      <point x="51" y="380" type="line" smooth="yes"/>
      <point x="51" y="439"/>
      <point x="91" y="478"/>
      <point x="143" y="478" type="curve" smooth="yes"/>
      <point x="154" y="478"/>
      <point x="163" y="477"/>
      <point x="174" y="475" type="curve" smooth="yes"/>
      <point x="259" y="462" type="line"/>
      <point x="259" y="475" type="line"/>
      <point x="323" y="475" type="line"/>
    </contour>
    <contour>
      <point x="259" y="57" type="line"/>
      <point x="259" y="416" type="line"/>
      <point x="197" y="420" type="line"/>
      <point x="191" y="421"/>
      <point x="175" y="421"/>
      <point x="169" y="421" type="curve" smooth="yes"/>
      <point x="133" y="421"/>
      <point x="115" y="399"/>
      <point x="115" y="366" type="curve" smooth="yes"/>
      <point x="115" y="112" type="line" smooth="yes"/>
      <point x="115" y="78"/>
      <point x="133" y="57"/>
      <point x="169" y="57" type="curve" smooth="yes"/>
    </contour>
  </outline>
</glyph>
<glyph name="h" format="1">
  <advance width="378"/>
  <unicode hex="0068"/>
  <outline>
    <contour>
      <point x="326" y="0" type="line"/>
      <point x="261" y="0" type="line"/>
      <point x="261" y="417" type="line"/>
      <point x="118" y="413" type="line"/>
      <point x="118" y="0" type="line"/>
      <point x="53" y="0" type="line"/>
      <point x="53" y="764" type="line"/>
      <point x="118" y="764" type="line"/>
      <point x="118" y="462" type="line"/>
      <point x="252" y="476" type="line"/>
      <point x="260" y="478"/>
      <point x="266" y="478"/>
      <point x="272" y="478" type="curve" smooth="yes"/>
      <point x="308" y="478"/>
      <point x="326" y="461"/>
      <point x="326" y="425" type="curve" smooth="yes"/>
    </contour>
  </outline>
</glyph>
<glyph name="i" format="2">
  <advance width="178"/>
  <unicode hex="0069"/>
  <anchor x="89.0" y="0" name="bottom"/>
  <anchor x="73" y="0" name="ogonek"/>
  <outline>
    <contour>
      <point x="122" y="579" type="line"/>
      <point x="56" y="579" type="line"/>
      <point x="56" y="661" type="line"/>
      <point x="122" y="661" type="line"/>
    </contour>
    <contour>
      <point x="121" y="0" type="line"/>
      <point x="57" y="0" type="line"/>
      <point x="57" y="475" type="line"/>
      <point x="121" y="475" type="line"/>
    </contour>
  </outline>
</glyph>
<glyph name="j" format="1">
  <advance width="178"/>
  <unicode hex="006A"/>
  <outline>
    <contour>
      <point x="122" y="579" type="line"/>
      <point x="56" y="579" type="line"/>
      <point x="56" y="661" type="line"/>
      <point x="122" y="661" type="line"/>
    </contour>
    <contour>
      <point x="121" y="-125" type="line"/>
      <point x="121" y="-162"/>
      <point x="103" y="-180"/>
      <point x="66" y="-180" type="curve" smooth="yes"/>
      <point x="-15" y="-180" type="line"/>
      <point x="-15" y="-123" type="line"/>
      <point x="57" y="-123" type="line"/>
      <point x="57" y="475" type="line"/>
      <point x="121" y="475" type="line"/>
    </contour>
  </outline>
</glyph>
<glyph name="k" format="2">
  <advance width="335"/>
  <unicode hex="006B"/>
  <anchor x="178" y="0" name="bottom"/>
  <outline>
    <contour>
      <point x="320" y="0" type="line"/>
      <point x="249" y="0" type="line"/>
      <point x="118" y="242" type="line"/>
      <point x="118" y="0" type="line"/>
      <point x="53" y="0" type="line"/>
      <point x="53" y="764" type="line"/>
      <point x="118" y="764" type="line"/>
      <point x="118" y="279" type="line"/>
      <point x="240" y="475" type="line"/>
      <point x="310" y="475" type="line"/>
      <point x="310" y="473" type="line"/>
      <point x="172" y="263" type="line"/>
      <point x="320" y="2" type="line"/>
    </contour>
  </outline>
</glyph>
<glyph name="l" format="2">
  <advance width="178"/>
  <unicode hex="006C"/>
  <anchor x="89.0" y="0" name="bottom"/>
  <anchor x="89.0" y="764" name="top"/>
  <anchor x="198" y="540" name="caron.vert"/>
  <outline>
    <contour>
      <point x="121" y="0" type="line"/>
      <point x="57" y="0" type="line"/>
      <point x="57" y="764" type="line"/>
      <point x="121" y="764" type="line"/>
    </contour>
  </outline>
</glyph>
<glyph name="m" format="2">
  <advance width="583"/>
  <unicode hex="006D"/>
  <anchor x="291.5" y="0" name="bottom"/>
  <outline>
    <contour>
      <point x="531" y="0" type="line"/>
      <point x="466" y="0" type="line"/>
      <point x="466" y="417" type="line"/>
      <point x="324" y="413" type="line"/>
      <point x="324" y="0" type="line"/>
      <point x="260" y="0" type="line"/>
      <point x="260" y="417" type="line"/>
      <point x="118" y="413" type="line"/>
      <point x="118" y="0" type="line"/>
      <point x="53" y="0" type="line"/>
      <point x="53" y="475" type="line"/>
      <point x="118" y="475" type="line"/>
      <point x="118" y="462" type="line"/>
      <point x="247" y="476" type="line" smooth="yes"/>
      <point x="256" y="477"/>
      <point x="266" y="478"/>
      <point x="271" y="478" type="curve" smooth="yes"/>
      <point x="290" y="478"/>
      <point x="304" y="473"/>
      <point x="311" y="465" type="curve" smooth="yes"/>
      <point x="315" y="460" type="line"/>
      <point x="457" y="476" type="line"/>
      <point x="465" y="478"/>
      <point x="471" y="478"/>
      <point x="477" y="478" type="curve" smooth="yes"/>
      <point x="513" y="478"/>
      <point x="531" y="461"/>
      <point x="531" y="425" type="curve" smooth="yes"/>
    </contour>
  </outline>
</glyph>
<glyph name="n" format="2">
  <advance width="378"/>
  <unicode hex="006E"/>
  <anchor x="189.0" y="475" name="top"/>
  <anchor x="189.0" y="0" name="bottom"/>
  <outline>
    <contour>
      <point x="326" y="0" type="line"/>
      <point x="261" y="0" type="line"/>
      <point x="261" y="417" type="line"/>
      <point x="118" y="413" type="line"/>
      <point x="118" y="0" type="line"/>
      <point x="53" y="0" type="line"/>
      <point x="53" y="475" type="line"/>
      <point x="118" y="475" type="line"/>
      <point x="118" y="462" type="line"/>
      <point x="249" y="476" type="line" smooth="yes"/>
      <point x="258" y="477"/>
      <point x="266" y="478"/>
      <point x="272" y="478" type="curve" smooth="yes"/>
      <point x="308" y="478"/>
      <point x="326" y="461"/>
      <point x="326" y="425" type="curve" smooth="yes"/>
    </contour>
  </outline>
</glyph>
<glyph name="o" format="2">
  <advance width="379"/>
  <unicode hex="006F"/>
  <anchor x="190" y="475" name="top"/>
  <anchor x="379" y="475" name="horn"/>
  <anchor x="189.5" y="0" name="bottom"/>
  <outline>
    <contour>
      <point x="326" y="55" type="line"/>
      <point x="326" y="18"/>
      <point x="308" y="0"/>
      <point x="271" y="0" type="curve" smooth="yes"/>
      <point x="108" y="0" type="line" smooth="yes"/>
      <point x="71" y="0"/>
      <point x="53" y="18"/>
      <point x="53" y="55" type="curve" smooth="yes"/>
      <point x="53" y="420" type="line" smooth="yes"/>
      <point x="53" y="457"/>
      <point x="71" y="475"/>
      <point x="108" y="475" type="curve" smooth="yes"/>
      <point x="271" y="475" type="line" smooth="yes"/>
      <point x="308" y="475"/>
      <point x="326" y="457"/>
      <point x="326" y="420" type="curve" smooth="yes"/>
    </contour>
    <contour>
      <point x="261" y="57" type="line"/>
      <point x="261" y="418" type="line"/>
      <point x="118" y="418" type="line"/>
      <point x="118" y="57" type="line"/>
    </contour>
  </outline>
</glyph>
<glyph name="p" format="2">
  <advance width="377"/>
  <unicode hex="0070"/>
  <outline>
    <contour>
      <point x="326" y="102" type="line"/>
      <point x="326" y="45"/>
      <point x="285" y="0"/>
      <point x="225" y="0" type="curve" smooth="yes"/>
      <point x="118" y="0" type="line"/>
      <point x="118" y="-180" type="line"/>
      <point x="53" y="-180" type="line"/>
      <point x="53" y="475" type="line"/>
      <point x="118" y="475" type="line"/>
      <point x="118" y="462" type="line"/>
      <point x="252" y="476" type="line"/>
      <point x="260" y="478"/>
      <point x="266" y="478"/>
      <point x="272" y="478" type="curve" smooth="yes"/>
      <point x="308" y="478"/>
      <point x="326" y="461"/>
      <point x="326" y="425" type="curve" smooth="yes"/>
    </contour>
    <contour>
      <point x="261" y="112" type="curve" smooth="yes"/>
      <point x="261" y="417" type="line"/>
      <point x="118" y="413" type="line"/>
      <point x="118" y="57" type="line"/>
      <point x="208" y="57" type="line" smooth="yes"/>
      <point x="244" y="57"/>
      <point x="261" y="78"/>
    </contour>
  </outline>
</glyph>
<glyph name="r" format="1">
  <advance width="331"/>
  <unicode hex="0072"/>
  <outline>
    <contour>
      <point x="302" y="319" type="line"/>
      <point x="238" y="319" type="line"/>
      <point x="238" y="417" type="line"/>
      <point x="118" y="413" type="line"/>
      <point x="118" y="0" type="line"/>
      <point x="53" y="0" type="line"/>
      <point x="53" y="475" type="line"/>
      <point x="118" y="475" type="line"/>
      <point x="118" y="462" type="line"/>
      <point x="228" y="476" type="line"/>
      <point x="235" y="478"/>
      <point x="242" y="478"/>
      <point x="248" y="478" type="curve" smooth="yes"/>
      <point x="284" y="478"/>
      <point x="302" y="461"/>
      <point x="302" y="425" type="curve" smooth="yes"/>
    </contour>
  </outline>
</glyph>
<glyph name="s" format="1">
  <advance width="359"/>
  <unicode hex="0073"/>
  <outline>
    <contour>
      <point x="309" y="55" type="line"/>
      <point x="309" y="18"/>
      <point x="291" y="0"/>
      <point x="254" y="0" type="curve" smooth="yes"/>
      <point x="105" y="0" type="line" smooth="yes"/>
      <point x="68" y="0"/>
      <point x="50" y="18"/>
      <point x="50" y="55" type="curve" smooth="yes"/>
      <point x="50" y="163" type="line"/>
      <point x="114" y="163" type="line"/>
      <point x="114" y="56" type="line"/>
      <point x="245" y="56" type="line"/>
      <point x="245" y="151" type="line"/>
      <point x="75" y="290" type="line" smooth="yes"/>
      <point x="60" y="303"/>
      <point x="51" y="315"/>
      <point x="51" y="341" type="curve" smooth="yes"/>
      <point x="51" y="420" type="line" smooth="yes"/>
      <point x="51" y="457"/>
      <point x="69" y="475"/>
      <point x="106" y="475" type="curve" smooth="yes"/>
      <point x="253" y="475" type="line" smooth="yes"/>
      <point x="290" y="475"/>
      <point x="308" y="457"/>
      <point x="308" y="420" type="curve" smooth="yes"/>
      <point x="308" y="325" type="line"/>
      <point x="245" y="325" type="line"/>
      <point x="245" y="419" type="line"/>
      <point x="114" y="419" type="line"/>
      <point x="114" y="336" type="line"/>
      <point x="285" y="197" type="line" smooth="yes"/>
      <point x="301" y="184"/>
      <point x="309" y="172"/>
      <point x="309" y="145" type="curve" smooth="yes"/>
    </contour>
  </outline>
</glyph>
<glyph name="t" format="2">
  <advance width="254"/>
  <unicode hex="0074"/>
  <anchor x="210" y="525" name="caron.vert"/>
  <anchor x="157.0" y="0" name="bottom"/>
  <outline>
    <contour>
      <point x="224" y="0" type="line"/>
      <point x="132" y="0" type="line" smooth="yes"/>
      <point x="95" y="0"/>
      <point x="77" y="18"/>
      <point x="77" y="55" type="curve" smooth="yes"/>
      <point x="77" y="418" type="line"/>
      <point x="20" y="418" type="line"/>
      <point x="20" y="475" type="line"/>
      <point x="77" y="475" type="line"/>
      <point x="77" y="623" type="line"/>
      <point x="141" y="623" type="line"/>
      <point x="141" y="475" type="line"/>
      <point x="224" y="475" type="line"/>
      <point x="224" y="418" type="line"/>
      <point x="141" y="418" type="line"/>
      <point x="141" y="57" type="line"/>
      <point x="224" y="57" type="line"/>
    </contour>
  </outline>
</glyph>
<glyph name="u" format="2">
  <advance width="378"/>
  <unicode hex="0075"/>
  <anchor x="189.0" y="475" name="top"/>
  <anchor x="189.0" y="0" name="bottom"/>
  <anchor x="283" y="0" name="ogonek"/>
  <anchor x="378" y="475" name="horn"/>
  <outline>
    <contour>
      <point x="325" y="0" type="line"/>
      <point x="261" y="0" type="line"/>
      <point x="261" y="13" type="line"/>
      <point x="130" y="-1" type="line" smooth="yes"/>
      <point x="121" y="-2"/>
      <point x="112" y="-3"/>
      <point x="106" y="-3" type="curve" smooth="yes"/>
      <point x="70" y="-3"/>
      <point x="53" y="14"/>
      <point x="53" y="50" type="curve" smooth="yes"/>
      <point x="53" y="475" type="line"/>
      <point x="117" y="475" type="line"/>
      <point x="117" y="58" type="line"/>
      <point x="261" y="62" type="line"/>
      <point x="261" y="475" type="line"/>
      <point x="325" y="475" type="line"/>
    </contour>
  </outline>
</glyph>
<glyph name="v" format="1">
  <advance width="347"/>
  <unicode hex="0076"/>
  <outline>
    <contour>
      <point x="321" y="475" type="line"/>
      <point x="203" y="-1" type="line"/>
      <point x="144" y="-1" type="line"/>
      <point x="26" y="475" type="line"/>
      <point x="93" y="475" type="line"/>
      <point x="174" y="101" type="line"/>
      <point x="256" y="475" type="line"/>
    </contour>
  </outline>
</glyph>
<glyph name="w" format="2">
  <advance width="505"/>
  <unicode hex="0077"/>
  <anchor x="252.5" y="475" name="top"/>
  <outline>
    <contour>
      <point x="478" y="475" type="line"/>
      <point x="380" y="-1" type="line"/>
      <point x="322" y="-1" type="line"/>
      <point x="252" y="360" type="line"/>
      <point x="182" y="-1" type="line"/>
      <point x="125" y="-1" type="line"/>
      <point x="27" y="475" type="line"/>
      <point x="88" y="475" type="line"/>
      <point x="155" y="109" type="line"/>
      <point x="224" y="475" type="line"/>
      <point x="281" y="475" type="line"/>
      <point x="350" y="109" type="line"/>
      <point x="417" y="475" type="line"/>
    </contour>
  </outline>
</glyph>
<glyph name="y" format="2">
  <advance width="347"/>
  <unicode hex="0079"/>
  <anchor x="173.5" y="475" name="top"/>
  <anchor x="173.5" y="0" name="bottom"/>
  <outline>
    <contour>
      <point x="321" y="475" type="line"/>
      <point x="159" y="-180" type="line"/>
      <point x="95" y="-180" type="line"/>
      <point x="143" y="4" type="line"/>
      <point x="26" y="475" type="line"/>
      <point x="93" y="475" type="line"/>
      <point x="174" y="101" type="line"/>
      <point x="256" y="475" type="line"/>
    </contour>
  </outline>
</glyph>
<glyph name="z" format="1">
  <advance width="320"/>
  <unicode hex="007A"/>
  <outline>
    <contour>
      <point x="281" y="0" type="line"/>
      <point x="31" y="0" type="line"/>
      <point x="31" y="30" type="line"/>
      <point x="204" y="417" type="line"/>
      <point x="49" y="417" type="line"/>
      <point x="49" y="475" type="line"/>
      <point x="281" y="475" type="line"/>
      <point x="281" y="445" type="line"/>
      <point x="107" y="58" type="line"/>
      <point x="281" y="58" type="line"/>
    </contour>
  </outline>
</glyph>
<glyph name="braceleft" format="1">
  <advance width="341"/>
  <unicode hex="007B"/>
  <outline>
    <contour>
      <point x="298" y="-121" type="line"/>
      <point x="213" y="-121" type="line" smooth="yes"/>
      <point x="155" y="-121"/>
      <point x="113" y="-79"/>
      <point x="113" y="-21" type="curve" smooth="yes"/>
      <point x="113" y="254" type="line"/>
      <point x="31" y="330" type="line"/>
      <point x="31" y="344" type="line"/>
      <point x="113" y="420" type="line"/>
      <point x="113" y="664" type="line" smooth="yes"/>
      <point x="113" y="722"/>
      <point x="155" y="764"/>
      <point x="213" y="764" type="curve" smooth="yes"/>
      <point x="298" y="764" type="line"/>
      <point x="298" y="705" type="line"/>
      <point x="231" y="705" type="line" smooth="yes"/>
      <point x="200" y="705"/>
      <point x="181" y="687"/>
      <point x="181" y="656" type="curve" smooth="yes"/>
      <point x="181" y="429" type="line" smooth="yes"/>
      <point x="181" y="404"/>
      <point x="176" y="393"/>
      <point x="157" y="377" type="curve" smooth="yes"/>
      <point x="108" y="337" type="line"/>
      <point x="157" y="297" type="line" smooth="yes"/>
      <point x="176" y="281"/>
      <point x="181" y="270"/>
      <point x="181" y="245" type="curve" smooth="yes"/>
      <point x="181" y="-13" type="line" smooth="yes"/>
      <point x="181" y="-44"/>
      <point x="200" y="-62"/>
      <point x="231" y="-62" type="curve" smooth="yes"/>
      <point x="298" y="-62" type="line"/>
    </contour>
  </outline>
</glyph>
<glyph name="bar" format="1">
  <advance width="204"/>
  <unicode hex="007C"/>
  <outline>
    <contour>
      <point x="133" y="-167" type="line"/>
      <point x="71" y="-167" type="line"/>
      <point x="71" y="764" type="line"/>
      <point x="133" y="764" type="line"/>
    </contour>
  </outline>
</glyph>
<glyph name="braceright" format="2">
  <advance width="341"/>
  <unicode hex="007D"/>
  <outline>
    <contour>
      <point x="310" y="330" type="line"/>
      <point x="228" y="254" type="line"/>
      <point x="228" y="-21" type="line" smooth="yes"/>
      <point x="228" y="-79"/>
      <point x="185" y="-121"/>
      <point x="128" y="-121" type="curve" smooth="yes"/>
      <point x="43" y="-121" type="line"/>
      <point x="43" y="-62" type="line"/>
      <point x="110" y="-62" type="line" smooth="yes"/>
      <point x="141" y="-62"/>
      <point x="160" y="-44"/>
      <point x="160" y="-13" type="curve" smooth="yes"/>
      <point x="160" y="245" type="line" smooth="yes"/>
      <point x="160" y="270"/>
      <point x="164" y="281"/>
      <point x="184" y="297" type="curve" smooth="yes"/>
      <point x="233" y="337" type="line"/>
      <point x="184" y="377" type="line" smooth="yes"/>
      <point x="164" y="393"/>
      <point x="160" y="404"/>
      <point x="160" y="429" type="curve" smooth="yes"/>
      <point x="160" y="656" type="line" smooth="yes"/>
      <point x="160" y="687"/>
      <point x="141" y="705"/>
      <point x="110" y="705" type="curve" smooth="yes"/>
      <point x="43" y="705" type="line"/>
      <point x="43" y="764" type="line"/>
      <point x="128" y="764" type="line" smooth="yes"/>
      <point x="185" y="764"/>
      <point x="228" y="722"/>
      <point x="228" y="664" type="curve" smooth="yes"/>
      <point x="228" y="420" type="line"/>
      <point x="310" y="344" type="line"/>
    </contour>
  </outline>
</glyph>
<glyph name="asciitilde" format="1">
  <advance width="505"/>
  <unicode hex="007E"/>
  <outline>
    <contour>
      <point x="422" y="266" type="line"/>
      <point x="422" y="240"/>
      <point x="408" y="224"/>
      <point x="382" y="224" type="curve" smooth="yes"/>
      <point x="365" y="224"/>
      <point x="348" y="228"/>
      <point x="331" y="234" type="curve" smooth="yes"/>
      <point x="147" y="304" type="line"/>
      <point x="147" y="227" type="line"/>
      <point x="83" y="227" type="line"/>
      <point x="83" y="329" type="line" smooth="yes"/>
      <point x="83" y="355"/>
      <point x="97" y="371"/>
      <point x="123" y="371" type="curve" smooth="yes"/>
      <point x="140" y="371"/>
      <point x="157" y="367"/>
      <point x="174" y="361" type="curve" smooth="yes"/>
      <point x="358" y="291" type="line"/>
      <point x="358" y="368" type="line"/>
      <point x="422" y="368" type="line"/>
    </contour>
  </outline>
</glyph>
<glyph name="exclamdown" format="1">
  <advance width="199"/>
  <unicode hex="00A1"/>
  <outline>
    <contour>
      <point x="136" y="678" type="line"/>
      <point x="63" y="678" type="line"/>
      <point x="63" y="764" type="line"/>
      <point x="136" y="764" type="line"/>
    </contour>
    <contour>
      <point x="137" y="0" type="line"/>
      <point x="62" y="0" type="line"/>
      <point x="77" y="592" type="line"/>
      <point x="122" y="592" type="line"/>
    </contour>
  </outline>
</glyph>
<glyph name="cent" format="1">
  <advance width="369"/>
  <unicode hex="00A2"/>
  <outline>
    <contour>
      <point x="317" y="201" type="line"/>
      <point x="317" y="164"/>
      <point x="299" y="146"/>
      <point x="262" y="146" type="curve" smooth="yes"/>
      <point x="211" y="146" type="line"/>
      <point x="211" y="0" type="line"/>
      <point x="159" y="0" type="line"/>
      <point x="159" y="146" type="line"/>
      <point x="108" y="146" type="line" smooth="yes"/>
      <point x="71" y="146"/>
      <point x="53" y="164"/>
      <point x="53" y="201" type="curve" smooth="yes"/>
      <point x="53" y="566" type="line" smooth="yes"/>
      <point x="53" y="603"/>
      <point x="71" y="621"/>
      <point x="108" y="621" type="curve" smooth="yes"/>
      <point x="159" y="621" type="line"/>
      <point x="159" y="764" type="line"/>
      <point x="211" y="764" type="line"/>
      <point x="211" y="621" type="line"/>
      <point x="262" y="621" type="line" smooth="yes"/>
      <point x="299" y="621"/>
      <point x="317" y="603"/>
      <point x="317" y="566" type="curve" smooth="yes"/>
      <point x="317" y="471" type="line"/>
      <point x="253" y="471" type="line"/>
      <point x="253" y="564" type="line"/>
      <point x="211" y="564" type="line"/>
      <point x="211" y="203" type="line"/>
      <point x="253" y="203" type="line"/>
      <point x="253" y="309" type="line"/>
      <point x="317" y="309" type="line"/>
    </contour>
    <contour>
      <point x="159" y="203" type="line"/>
      <point x="159" y="564" type="line"/>
      <point x="118" y="564" type="line"/>
      <point x="118" y="203" type="line"/>
    </contour>
  </outline>
</glyph>
<glyph name="sterling" format="2">
  <advance width="418"/>
  <unicode hex="00A3"/>
  <outline>
    <contour>
      <point x="376" y="0" type="line"/>
      <point x="30" y="0" type="line"/>
      <point x="30" y="60" type="line"/>
      <point x="86" y="60" type="line"/>
      <point x="86" y="337" type="line"/>
      <point x="30" y="337" type="line"/>
      <point x="30" y="396" type="line"/>
      <point x="86" y="396" type="line"/>
      <point x="86" y="710" type="line" smooth="yes"/>
      <point x="86" y="742"/>
      <point x="108" y="764"/>
      <point x="140" y="764" type="curve" smooth="yes"/>
      <point x="315" y="764" type="line" smooth="yes"/>
      <point x="347" y="764"/>
      <point x="370" y="742"/>
      <point x="370" y="710" type="curve" smooth="yes"/>
      <point x="370" y="532" type="line"/>
      <point x="302" y="532" type="line"/>
      <point x="302" y="705" type="line"/>
      <point x="153" y="705" type="line"/>
      <point x="153" y="396" type="line"/>
      <point x="297" y="396" type="line"/>
      <point x="297" y="337" type="line"/>
      <point x="153" y="337" type="line"/>
      <point x="153" y="60" type="line"/>
      <point x="376" y="60" type="line"/>
    </contour>
  </outline>
</glyph>
<glyph name="yen" format="2">
  <advance width="390"/>
  <unicode hex="00A5"/>
  <outline>
    <contour>
      <point x="368" y="760" type="line"/>
      <point x="276" y="454" type="line"/>
      <point x="360" y="454" type="line"/>
      <point x="360" y="397" type="line"/>
      <point x="259" y="397" type="line"/>
      <point x="232" y="308" type="line"/>
      <point x="360" y="308" type="line"/>
      <point x="360" y="251" type="line"/>
      <point x="229" y="251" type="line"/>
      <point x="229" y="0" type="line"/>
      <point x="161" y="0" type="line"/>
      <point x="161" y="251" type="line"/>
      <point x="30" y="251" type="line"/>
      <point x="30" y="308" type="line"/>
      <point x="158" y="308" type="line"/>
      <point x="131" y="397" type="line"/>
      <point x="30" y="397" type="line"/>
      <point x="30" y="454" type="line"/>
      <point x="114" y="454" type="line"/>
      <point x="22" y="760" type="line"/>
      <point x="22" y="764" type="line"/>
      <point x="91" y="764" type="line"/>
      <point x="196" y="382" type="line"/>
      <point x="300" y="764" type="line"/>
      <point x="368" y="764" type="line"/>
    </contour>
  </outline>
</glyph>
<glyph name="section" format="1">
  <advance width="417"/>
  <unicode hex="00A7"/>
  <outline>
    <contour>
      <point x="359" y="54" type="line"/>
      <point x="359" y="22"/>
      <point x="337" y="0"/>
      <point x="305" y="0" type="curve" smooth="yes"/>
      <point x="113" y="0" type="line" smooth="yes"/>
      <point x="81" y="0"/>
      <point x="58" y="22"/>
      <point x="58" y="54" type="curve" smooth="yes"/>
      <point x="58" y="173" type="line"/>
      <point x="125" y="173" type="line"/>
      <point x="125" y="58" type="line"/>
      <point x="293" y="58" type="line"/>
      <point x="293" y="176" type="line"/>
      <point x="90" y="289" type="line" smooth="yes"/>
      <point x="67" y="302"/>
      <point x="58" y="313"/>
      <point x="58" y="342" type="curve" smooth="yes"/>
      <point x="58" y="417" type="line" smooth="yes"/>
      <point x="58" y="446"/>
      <point x="65" y="456"/>
      <point x="89" y="469" type="curve" smooth="yes"/>
      <point x="155" y="505" type="line"/>
      <point x="90" y="541" type="line" smooth="yes"/>
      <point x="66" y="554"/>
      <point x="58" y="567"/>
      <point x="58" y="594" type="curve" smooth="yes"/>
      <point x="58" y="710" type="line" smooth="yes"/>
      <point x="58" y="742"/>
      <point x="81" y="764"/>
      <point x="113" y="764" type="curve" smooth="yes"/>
      <point x="305" y="764" type="line" smooth="yes"/>
      <point x="337" y="764"/>
      <point x="359" y="742"/>
      <point x="359" y="710" type="curve" smooth="yes"/>
      <point x="359" y="591" type="line"/>
      <point x="293" y="591" type="line"/>
      <point x="293" y="706" type="line"/>
      <point x="125" y="706" type="line"/>
      <point x="125" y="588" type="line"/>
      <point x="327" y="475" type="line" smooth="yes"/>
      <point x="350" y="462"/>
      <point x="359" y="451"/>
      <point x="359" y="422" type="curve" smooth="yes"/>
      <point x="359" y="347" type="line" smooth="yes"/>
      <point x="359" y="318"/>
      <point x="351" y="308"/>
      <point x="328" y="295" type="curve" smooth="yes"/>
      <point x="263" y="259" type="line"/>
      <point x="327" y="223" type="line" smooth="yes"/>
      <point x="351" y="209"/>
      <point x="359" y="197"/>
      <point x="359" y="170" type="curve" smooth="yes"/>
    </contour>
    <contour>
      <point x="297" y="337" type="line"/>
      <point x="297" y="427" type="line"/>
      <point x="209" y="476" type="line"/>
      <point x="121" y="427" type="line"/>
      <point x="121" y="337" type="line"/>
      <point x="209" y="288" type="line"/>
    </contour>
  </outline>
</glyph>
<glyph name="dieresis" format="2">
  <advance width="400"/>
  <unicode hex="00A8"/>
  <outline>
    <contour>
      <point x="299" y="517" type="line"/>
      <point x="227" y="517" type="line"/>
      <point x="227" y="591" type="line"/>
      <point x="299" y="591" type="line"/>
    </contour>
    <contour>
      <point x="173" y="517" type="line"/>
      <point x="101" y="517" type="line"/>
      <point x="101" y="591" type="line"/>
      <point x="173" y="591" type="line"/>
    </contour>
  </outline>
</glyph>
<glyph name="copyright" format="1">
  <advance width="564"/>
  <unicode hex="00A9"/>
  <outline>
    <contour>
      <point x="503" y="32" type="line"/>
      <point x="503" y="12"/>
      <point x="491" y="0"/>
      <point x="471" y="0" type="curve" smooth="yes"/>
      <point x="93" y="0" type="line" smooth="yes"/>
      <point x="73" y="0"/>
      <point x="61" y="12"/>
      <point x="61" y="32" type="curve" smooth="yes"/>
      <point x="61" y="732" type="line" smooth="yes"/>
      <point x="61" y="752"/>
      <point x="73" y="764"/>
      <point x="93" y="764" type="curve" smooth="yes"/>
      <point x="471" y="764" type="line" smooth="yes"/>
      <point x="491" y="764"/>
      <point x="503" y="752"/>
      <point x="503" y="732" type="curve" smooth="yes"/>
    </contour>
    <contour>
      <point x="466" y="34" type="line"/>
      <point x="466" y="730" type="line"/>
      <point x="98" y="730" type="line"/>
      <point x="98" y="34" type="line"/>
    </contour>
    <contour>
      <point x="375" y="203" type="line"/>
      <point x="375" y="183"/>
      <point x="361" y="169"/>
      <point x="340" y="169" type="curve" smooth="yes"/>
      <point x="224" y="169" type="line" smooth="yes"/>
      <point x="203" y="169"/>
      <point x="188" y="183"/>
      <point x="188" y="203" type="curve" smooth="yes"/>
      <point x="188" y="564" type="line" smooth="yes"/>
      <point x="188" y="585"/>
      <point x="203" y="599"/>
      <point x="224" y="599" type="curve" smooth="yes"/>
      <point x="340" y="599" type="line" smooth="yes"/>
      <point x="361" y="599"/>
      <point x="375" y="585"/>
      <point x="375" y="564" type="curve" smooth="yes"/>
      <point x="375" y="461" type="line"/>
      <point x="325" y="461" type="line"/>
      <point x="325" y="553" type="line"/>
      <point x="238" y="553" type="line"/>
      <point x="238" y="214" type="line"/>
      <point x="325" y="214" type="line"/>
      <point x="325" y="315" type="line"/>
      <point x="375" y="315" type="line"/>
    </contour>
  </outline>
</glyph>
<glyph name="ordfeminine" format="2">
  <advance width="327"/>
  <unicode hex="00AA"/>
  <outline>
    <contour>
      <point x="272" y="384" type="line"/>
      <point x="216" y="384" type="line"/>
      <point x="216" y="395" type="line"/>
      <point x="113" y="383" type="line" smooth="yes"/>
      <point x="107" y="382"/>
      <point x="102" y="382"/>
      <point x="97" y="382" type="curve" smooth="yes"/>
      <point x="68" y="382"/>
      <point x="55" y="395"/>
      <point x="55" y="424" type="curve" smooth="yes"/>
      <point x="55" y="564" type="line" smooth="yes"/>
      <point x="55" y="593"/>
      <point x="69" y="607"/>
      <point x="98" y="607" type="curve" smooth="yes"/>
      <point x="217" y="607" type="line"/>
      <point x="217" y="717" type="line"/>
      <point x="112" y="717" type="line"/>
      <point x="112" y="656" type="line"/>
      <point x="58" y="656" type="line"/>
      <point x="58" y="720" type="line" smooth="yes"/>
      <point x="58" y="750"/>
      <point x="73" y="764"/>
      <point x="102" y="764" type="curve" smooth="yes"/>
      <point x="227" y="764" type="line" smooth="yes"/>
      <point x="257" y="764"/>
      <point x="272" y="750"/>
      <point x="272" y="720" type="curve" smooth="yes"/>
    </contour>
    <contour>
      <point x="272" y="273" type="line"/>
      <point x="55" y="273" type="line"/>
      <point x="55" y="321" type="line"/>
      <point x="272" y="321" type="line"/>
    </contour>
    <contour>
      <point x="217" y="435" type="line"/>
      <point x="217" y="563" type="line"/>
      <point x="108" y="563" type="line"/>
      <point x="108" y="432" type="line"/>
    </contour>
  </outline>
</glyph>
<glyph name="guillemotleft" format="2">
  <advance width="447"/>
  <unicode hex="00AB"/>
  <outline>
    <contour>
      <point x="397" y="76" type="line"/>
      <point x="327" y="76" type="line"/>
      <point x="205" y="261" type="line"/>
      <point x="205" y="281" type="line"/>
      <point x="327" y="466" type="line"/>
      <point x="397" y="466" type="line"/>
      <point x="397" y="462" type="line"/>
      <point x="273" y="271" type="line"/>
      <point x="397" y="80" type="line"/>
    </contour>
    <contour>
      <point x="229" y="76" type="line"/>
      <point x="160" y="76" type="line"/>
      <point x="38" y="261" type="line"/>
      <point x="38" y="281" type="line"/>
      <point x="160" y="466" type="line"/>
      <point x="229" y="466" type="line"/>
      <point x="229" y="462" type="line"/>
      <point x="106" y="271" type="line"/>
      <point x="229" y="80" type="line"/>
    </contour>
  </outline>
</glyph>
<glyph name="registered" format="2">
  <advance width="564"/>
  <unicode hex="00AE"/>
  <outline>
    <contour>
      <point x="503" y="32" type="line"/>
      <point x="503" y="12"/>
      <point x="491" y="0"/>
      <point x="471" y="0" type="curve" smooth="yes"/>
      <point x="93" y="0" type="line" smooth="yes"/>
      <point x="73" y="0"/>
      <point x="61" y="12"/>
      <point x="61" y="32" type="curve" smooth="yes"/>
      <point x="61" y="732" type="line" smooth="yes"/>
      <point x="61" y="752"/>
      <point x="73" y="764"/>
      <point x="93" y="764" type="curve" smooth="yes"/>
      <point x="471" y="764" type="line" smooth="yes"/>
      <point x="491" y="764"/>
      <point x="503" y="752"/>
      <point x="503" y="732" type="curve" smooth="yes"/>
    </contour>
    <contour>
      <point x="466" y="34" type="line"/>
      <point x="466" y="730" type="line"/>
      <point x="98" y="730" type="line"/>
      <point x="98" y="34" type="line"/>
    </contour>
    <contour>
      <point x="386" y="169" type="line"/>
      <point x="335" y="169" type="line"/>
      <point x="256" y="399" type="line"/>
      <point x="266" y="414" type="line"/>
      <point x="328" y="414" type="line"/>
      <point x="328" y="554" type="line"/>
      <point x="238" y="554" type="line"/>
      <point x="238" y="169" type="line"/>
      <point x="189" y="169" type="line"/>
      <point x="189" y="599" type="line"/>
      <point x="343" y="599" type="line" smooth="yes"/>
      <point x="363" y="599"/>
      <point x="377" y="585"/>
      <point x="377" y="564" type="curve" smooth="yes"/>
      <point x="377" y="405" type="line" smooth="yes"/>
      <point x="377" y="386"/>
      <point x="364" y="371"/>
      <point x="346" y="371" type="curve" smooth="yes"/>
      <point x="316" y="371" type="line"/>
      <point x="386" y="174" type="line"/>
    </contour>
  </outline>
</glyph>
<glyph name="macron" format="2">
  <advance width="400"/>
  <unicode hex="00AF"/>
  <unicode hex="02C9"/>
  <outline>
    <contour>
      <point x="308" y="532" type="line"/>
      <point x="92" y="532" type="line"/>
      <point x="92" y="584" type="line"/>
      <point x="308" y="584" type="line"/>
    </contour>
  </outline>
</glyph>
<glyph name="degree" format="2">
  <advance width="326"/>
  <unicode hex="00B0"/>
  <outline>
    <contour>
      <point x="281" y="434" type="line"/>
      <point x="281" y="400"/>
      <point x="264" y="384"/>
      <point x="230" y="384" type="curve" smooth="yes"/>
      <point x="96" y="384" type="line" smooth="yes"/>
      <point x="62" y="384"/>
      <point x="45" y="400"/>
      <point x="45" y="434" type="curve" smooth="yes"/>
      <point x="45" y="714" type="line" smooth="yes"/>
      <point x="45" y="748"/>
      <point x="62" y="764"/>
      <point x="96" y="764" type="curve" smooth="yes"/>
      <point x="230" y="764" type="line" smooth="yes"/>
      <point x="264" y="764"/>
      <point x="281" y="748"/>
      <point x="281" y="714" type="curve" smooth="yes"/>
    </contour>
    <contour>
      <point x="225" y="433" type="line"/>
      <point x="225" y="715" type="line"/>
      <point x="100" y="715" type="line"/>
      <point x="100" y="433" type="line"/>
    </contour>
  </outline>
</glyph>
<glyph name="acute" format="2">
  <advance width="400"/>
  <unicode hex="00B4"/>
  <outline>
    <contour>
      <point x="257" y="630" type="line"/>
      <point x="137" y="517" type="line"/>
      <point x="92" y="517" type="line"/>
      <point x="92" y="520" type="line"/>
      <point x="165" y="632" type="line"/>
      <point x="257" y="632" type="line"/>
    </contour>
  </outline>
</glyph>
<glyph name="paragraph" format="1">
  <advance width="463"/>
  <unicode hex="00B6"/>
  <outline>
    <contour>
      <point x="402" y="0" type="line"/>
      <point x="337" y="0" type="line"/>
      <point x="337" y="303" type="line"/>
      <point x="251" y="303" type="line"/>
      <point x="251" y="0" type="line"/>
      <point x="186" y="0" type="line"/>
      <point x="186" y="303" type="line"/>
      <point x="101" y="303" type="line" smooth="yes"/>
      <point x="69" y="303"/>
      <point x="47" y="326"/>
      <point x="47" y="358" type="curve" smooth="yes"/>
      <point x="47" y="710" type="line" smooth="yes"/>
      <point x="47" y="742"/>
      <point x="69" y="764"/>
      <point x="101" y="764" type="curve" smooth="yes"/>
      <point x="402" y="764" type="line"/>
    </contour>
    <contour>
      <point x="337" y="364" type="line"/>
      <point x="337" y="704" type="line"/>
      <point x="207" y="704" type="line"/>
      <point x="207" y="364" type="line"/>
    </contour>
  </outline>
</glyph>
<glyph name="periodcentered" format="1">
  <advance width="166"/>
  <unicode hex="00B7"/>
  <unicode hex="2219"/>
  <outline>
    <contour>
      <point x="120" y="255" type="line"/>
      <point x="46" y="255" type="line"/>
      <point x="46" y="342" type="line"/>
      <point x="120" y="342" type="line"/>
    </contour>
  </outline>
</glyph>
<glyph name="cedilla" format="2">
  <advance width="400"/>
  <unicode hex="00B8"/>
  <outline>
    <contour>
      <point x="289" y="-141" type="line"/>
      <point x="289" y="-167"/>
      <point x="276" y="-180"/>
      <point x="250" y="-180" type="curve" smooth="yes"/>
      <point x="150" y="-180" type="line" smooth="yes"/>
      <point x="123" y="-180"/>
      <point x="111" y="-167"/>
      <point x="111" y="-141" type="curve" smooth="yes"/>
      <point x="111" y="-86" type="line"/>
      <point x="162" y="-86" type="line"/>
      <point x="162" y="-136" type="line"/>
      <point x="237" y="-136" type="line"/>
      <point x="237" y="-84" type="line"/>
      <point x="195" y="-62" type="line" smooth="yes"/>
      <point x="177" y="-53"/>
      <point x="172" y="-44"/>
      <point x="172" y="-23" type="curve" smooth="yes"/>
      <point x="172" y="10" type="line"/>
      <point x="224" y="10" type="line"/>
      <point x="224" y="-24" type="line"/>
      <point x="267" y="-47" type="line" smooth="yes"/>
      <point x="285" y="-56"/>
      <point x="289" y="-65"/>
      <point x="289" y="-86" type="curve" smooth="yes"/>
    </contour>
  </outline>
</glyph>
<glyph name="ordmasculine" format="1">
  <advance width="329"/>
  <unicode hex="00BA"/>
  <outline>
    <contour>
      <point x="274" y="428" type="line"/>
      <point x="274" y="398"/>
      <point x="259" y="384"/>
      <point x="230" y="384" type="curve" smooth="yes"/>
      <point x="100" y="384" type="line" smooth="yes"/>
      <point x="69" y="384"/>
      <point x="55" y="398"/>
      <point x="55" y="428" type="curve" smooth="yes"/>
      <point x="55" y="720" type="line" smooth="yes"/>
      <point x="55" y="750"/>
      <point x="69" y="764"/>
      <point x="100" y="764" type="curve" smooth="yes"/>
      <point x="230" y="764" type="line" smooth="yes"/>
      <point x="259" y="764"/>
      <point x="274" y="750"/>
      <point x="274" y="720" type="curve" smooth="yes"/>
    </contour>
    <contour>
      <point x="274" y="273" type="line"/>
      <point x="55" y="273" type="line"/>
      <point x="55" y="321" type="line"/>
      <point x="274" y="321" type="line"/>
    </contour>
    <contour>
      <point x="219" y="433" type="line"/>
      <point x="219" y="715" type="line"/>
      <point x="110" y="715" type="line"/>
      <point x="110" y="433" type="line"/>
    </contour>
  </outline>
</glyph>
<glyph name="guillemotright" format="2">
  <advance width="447"/>
  <unicode hex="00BB"/>
  <outline>
    <contour>
      <point x="409" y="261" type="line"/>
      <point x="288" y="76" type="line"/>
      <point x="218" y="76" type="line"/>
      <point x="218" y="80" type="line"/>
      <point x="342" y="271" type="line"/>
      <point x="218" y="462" type="line"/>
      <point x="218" y="466" type="line"/>
      <point x="288" y="466" type="line"/>
      <point x="409" y="281" type="line"/>
    </contour>
    <contour>
      <point x="242" y="261" type="line"/>
      <point x="120" y="76" type="line"/>
      <point x="51" y="76" type="line"/>
      <point x="51" y="80" type="line"/>
      <point x="174" y="271" type="line"/>
      <point x="51" y="462" type="line"/>
      <point x="51" y="466" type="line"/>
      <point x="120" y="466" type="line"/>
      <point x="242" y="281" type="line"/>
    </contour>
  </outline>
</glyph>
<glyph name="questiondown" format="1">
  <advance width="382"/>
  <unicode hex="00BF"/>
  <outline>
    <contour>
      <point x="232" y="678" type="line"/>
      <point x="158" y="678" type="line"/>
      <point x="158" y="764" type="line"/>
      <point x="232" y="764" type="line"/>
    </contour>
    <contour>
      <point x="338" y="54" type="line"/>
      <point x="338" y="22"/>
      <point x="315" y="0"/>
      <point x="283" y="0" type="curve" smooth="yes"/>
      <point x="101" y="0" type="line" smooth="yes"/>
      <point x="69" y="0"/>
      <point x="46" y="22"/>
      <point x="46" y="54" type="curve" smooth="yes"/>
      <point x="46" y="226" type="line" smooth="yes"/>
      <point x="46" y="246"/>
      <point x="51" y="263"/>
      <point x="61" y="278" type="curve" smooth="yes"/>
      <point x="161" y="430" type="line"/>
      <point x="161" y="592" type="line"/>
      <point x="229" y="592" type="line"/>
      <point x="229" y="446" type="line" smooth="yes"/>
      <point x="229" y="425"/>
      <point x="225" y="409"/>
      <point x="215" y="393" type="curve" smooth="yes"/>
      <point x="114" y="242" type="line"/>
      <point x="114" y="60" type="line"/>
      <point x="270" y="60" type="line"/>
      <point x="270" y="232" type="line"/>
      <point x="338" y="232" type="line"/>
    </contour>
  </outline>
</glyph>
<glyph name="Aring" format="1">
  <advance width="400"/>
  <unicode hex="00C5"/>
  <outline>
    <contour>
      <point x="369" y="0" type="line"/>
      <point x="302" y="0" type="line"/>
      <point x="275" y="170" type="line"/>
      <point x="123" y="170" type="line"/>
      <point x="96" y="0" type="line"/>
      <point x="31" y="0" type="line"/>
      <point x="31" y="2" type="line"/>
      <point x="158" y="716" type="line"/>
      <point x="144" y="716" type="line" smooth="yes"/>
      <point x="118" y="716"/>
      <point x="106" y="732"/>
      <point x="106" y="760" type="curve" smooth="yes"/>
      <point x="106" y="852" type="line" smooth="yes"/>
      <point x="106" y="882"/>
      <point x="121" y="897"/>
      <point x="151" y="897" type="curve" smooth="yes"/>
      <point x="249" y="897" type="line" smooth="yes"/>
      <point x="279" y="897"/>
      <point x="294" y="882"/>
      <point x="294" y="852" type="curve" smooth="yes"/>
      <point x="294" y="760" type="line" smooth="yes"/>
      <point x="294" y="732"/>
      <point x="282" y="716"/>
      <point x="256" y="716" type="curve" smooth="yes"/>
      <point x="243" y="716" type="line"/>
      <point x="369" y="2" type="line"/>
    </contour>
    <contour>
      <point x="244" y="760" type="line"/>
      <point x="244" y="852" type="line"/>
      <point x="156" y="852" type="line"/>
      <point x="156" y="760" type="line"/>
    </contour>
    <contour>
      <point x="266" y="230" type="line"/>
      <point x="199" y="644" type="line"/>
      <point x="132" y="230" type="line"/>
    </contour>
  </outline>
</glyph>
<glyph name="AE" format="2">
  <advance width="555"/>
  <unicode hex="00C6"/>
  <outline>
    <contour>
      <point x="510" y="0" type="line"/>
      <point x="263" y="0" type="line"/>
      <point x="263" y="170" type="line"/>
      <point x="133" y="170" type="line"/>
      <point x="92" y="0" type="line"/>
      <point x="27" y="0" type="line"/>
      <point x="27" y="2" type="line"/>
      <point x="216" y="764" type="line"/>
      <point x="507" y="764" type="line"/>
      <point x="507" y="704" type="line"/>
      <point x="330" y="704" type="line"/>
      <point x="330" y="419" type="line"/>
      <point x="492" y="419" type="line"/>
      <point x="492" y="358" type="line"/>
      <point x="330" y="358" type="line"/>
      <point x="330" y="60" type="line"/>
      <point x="510" y="60" type="line"/>
    </contour>
    <contour>
      <point x="263" y="230" type="line"/>
      <point x="263" y="712" type="line"/>
      <point x="146" y="230" type="line"/>
    </contour>
  </outline>
</glyph>
<glyph name="Ccedilla" format="2">
  <advance width="425"/>
  <unicode hex="00C7"/>
  <outline>
    <contour>
      <point x="367" y="54" type="line"/>
      <point x="367" y="22"/>
      <point x="344" y="0"/>
      <point x="312" y="0" type="curve" smooth="yes"/>
      <point x="237" y="0" type="line"/>
      <point x="237" y="-24" type="line"/>
      <point x="280" y="-47" type="line" smooth="yes"/>
      <point x="297" y="-56"/>
      <point x="302" y="-65"/>
      <point x="302" y="-86" type="curve" smooth="yes"/>
      <point x="302" y="-141" type="line" smooth="yes"/>
      <point x="302" y="-167"/>
      <point x="289" y="-180"/>
      <point x="263" y="-180" type="curve" smooth="yes"/>
      <point x="163" y="-180" type="line" smooth="yes"/>
      <point x="136" y="-180"/>
      <point x="123" y="-167"/>
      <point x="123" y="-141" type="curve" smooth="yes"/>
      <point x="123" y="-86" type="line"/>
      <point x="174" y="-86" type="line"/>
      <point x="174" y="-136" type="line"/>
      <point x="250" y="-136" type="line"/>
      <point x="250" y="-84" type="line"/>
      <point x="207" y="-62" type="line" smooth="yes"/>
      <point x="190" y="-53"/>
      <point x="185" y="-44"/>
      <point x="185" y="-23" type="curve" smooth="yes"/>
      <point x="185" y="0" type="line"/>
      <point x="115" y="0" type="line" smooth="yes"/>
      <point x="83" y="0"/>
      <point x="61" y="22"/>
      <point x="61" y="54" type="curve" smooth="yes"/>
      <point x="61" y="710" type="line" smooth="yes"/>
      <point x="61" y="742"/>
      <point x="83" y="764"/>
      <point x="115" y="764" type="curve" smooth="yes"/>
      <point x="312" y="764" type="line" smooth="yes"/>
      <point x="344" y="764"/>
      <point x="367" y="742"/>
      <point x="367" y="710" type="curve" smooth="yes"/>
      <point x="367" y="532" type="line"/>
      <point x="299" y="532" type="line"/>
      <point x="299" y="704" type="line"/>
      <point x="129" y="704" type="line"/>
      <point x="129" y="60" type="line"/>
      <point x="299" y="60" type="line"/>
      <point x="299" y="248" type="line"/>
      <point x="367" y="248" type="line"/>
    </contour>
  </outline>
</glyph>
<glyph name="Eth" format="1">
  <advance width="458"/>
  <unicode hex="00D0"/>
  <outline>
    <contour>
      <point x="400" y="138" type="line"/>
      <point x="400" y="61"/>
      <point x="344" y="0"/>
      <point x="260" y="0" type="curve" smooth="yes"/>
      <point x="85" y="0" type="line"/>
      <point x="85" y="367" type="line"/>
      <point x="34" y="367" type="line"/>
      <point x="34" y="428" type="line"/>
      <point x="85" y="428" type="line"/>
      <point x="85" y="764" type="line"/>
      <point x="260" y="764" type="line" smooth="yes"/>
      <point x="346" y="764"/>
      <point x="400" y="702"/>
      <point x="400" y="626" type="curve" smooth="yes"/>
    </contour>
    <contour>
      <point x="332" y="145" type="curve" smooth="yes"/>
      <point x="332" y="620" type="line" smooth="yes"/>
      <point x="332" y="670"/>
      <point x="298" y="704"/>
      <point x="247" y="704" type="curve" smooth="yes"/>
      <point x="152" y="704" type="line"/>
      <point x="152" y="428" type="line"/>
      <point x="234" y="428" type="line"/>
      <point x="234" y="367" type="line"/>
      <point x="152" y="367" type="line"/>
      <point x="152" y="60" type="line"/>
      <point x="243" y="60" type="line" smooth="yes"/>
      <point x="301" y="60"/>
      <point x="332" y="97"/>
    </contour>
  </outline>
</glyph>
<glyph name="Oslash" format="2">
  <advance width="445"/>
  <unicode hex="00D8"/>
  <anchor x="223" y="764" name="top"/>
  <outline>
    <contour>
      <point x="384" y="54" type="line"/>
      <point x="384" y="22"/>
      <point x="361" y="0"/>
      <point x="329" y="0" type="curve" smooth="yes"/>
      <point x="162" y="0" type="line"/>
      <point x="144" y="-75" type="line"/>
      <point x="76" y="-75" type="line"/>
      <point x="76" y="-71" type="line"/>
      <point x="94" y="3" type="line"/>
      <point x="74" y="11"/>
      <point x="61" y="29"/>
      <point x="61" y="54" type="curve" smooth="yes"/>
      <point x="61" y="710" type="line" smooth="yes"/>
      <point x="61" y="742"/>
      <point x="83" y="764"/>
      <point x="115" y="764" type="curve" smooth="yes"/>
      <point x="282" y="764" type="line"/>
      <point x="300" y="839" type="line"/>
      <point x="369" y="839" type="line"/>
      <point x="369" y="835" type="line"/>
      <point x="351" y="760" type="line"/>
      <point x="371" y="753"/>
      <point x="384" y="734"/>
      <point x="384" y="710" type="curve" smooth="yes"/>
    </contour>
    <contour>
      <point x="267" y="704" type="line"/>
      <point x="129" y="704" type="line"/>
      <point x="129" y="140" type="line"/>
    </contour>
    <contour>
      <point x="316" y="60" type="line"/>
      <point x="316" y="623" type="line"/>
      <point x="177" y="60" type="line"/>
    </contour>
  </outline>
</glyph>
<glyph name="Thorn" format="1">
  <advance width="410"/>
  <unicode hex="00DE"/>
  <outline>
    <contour>
      <point x="364" y="211" type="line"/>
      <point x="364" y="179"/>
      <point x="341" y="157"/>
      <point x="309" y="157" type="curve" smooth="yes"/>
      <point x="129" y="157" type="line"/>
      <point x="129" y="0" type="line"/>
      <point x="61" y="0" type="line"/>
      <point x="61" y="764" type="line"/>
      <point x="129" y="764" type="line"/>
      <point x="129" y="617" type="line"/>
      <point x="309" y="617" type="line" smooth="yes"/>
      <point x="341" y="617"/>
      <point x="364" y="595"/>
      <point x="364" y="563" type="curve" smooth="yes"/>
    </contour>
    <contour>
      <point x="296" y="217" type="line"/>
      <point x="296" y="557" type="line"/>
      <point x="129" y="557" type="line"/>
      <point x="129" y="217" type="line"/>
    </contour>
  </outline>
</glyph>
<glyph name="germandbls" format="2">
  <advance width="385"/>
  <unicode hex="00DF"/>
  <outline>
    <contour>
      <point x="331" y="53" type="line"/>
      <point x="331" y="18"/>
      <point x="314" y="0"/>
      <point x="278" y="0" type="curve" smooth="yes"/>
      <point x="188" y="0" type="line"/>
      <point x="188" y="57" type="line"/>
      <point x="267" y="57" type="line"/>
      <point x="267" y="319" type="line"/>
      <point x="187" y="393" type="line"/>
      <point x="187" y="409" type="line"/>
      <point x="266" y="482" type="line"/>
      <point x="266" y="652" type="line" smooth="yes"/>
      <point x="266" y="686"/>
      <point x="249" y="707"/>
      <point x="213" y="707" type="curve" smooth="yes"/>
      <point x="118" y="707" type="line"/>
      <point x="118" y="0" type="line"/>
      <point x="53" y="0" type="line"/>
      <point x="53" y="764" type="line"/>
      <point x="229" y="764" type="line" smooth="yes"/>
      <point x="290" y="764"/>
      <point x="330" y="719"/>
      <point x="330" y="662" type="curve" smooth="yes"/>
      <point x="330" y="508" type="line" smooth="yes"/>
      <point x="330" y="477"/>
      <point x="329" y="465"/>
      <point x="305" y="445" type="curve" smooth="yes"/>
      <point x="253" y="401" type="line"/>
      <point x="306" y="358" type="line" smooth="yes"/>
      <point x="330" y="338"/>
      <point x="331" y="326"/>
      <point x="331" y="294" type="curve" smooth="yes"/>
    </contour>
  </outline>
</glyph>
<glyph name="ae" format="1">
  <advance width="571"/>
  <unicode hex="00E6"/>
  <outline>
    <contour>
      <point x="518" y="55" type="line"/>
      <point x="518" y="18"/>
      <point x="500" y="0"/>
      <point x="463" y="0" type="curve" smooth="yes"/>
      <point x="311" y="0" type="line" smooth="yes"/>
      <point x="291" y="0"/>
      <point x="278" y="5"/>
      <point x="268" y="14" type="curve"/>
      <point x="125" y="-2" type="line" smooth="yes"/>
      <point x="117" y="-3"/>
      <point x="111" y="-3"/>
      <point x="104" y="-3" type="curve" smooth="yes"/>
      <point x="68" y="-3"/>
      <point x="51" y="14"/>
      <point x="51" y="50" type="curve" smooth="yes"/>
      <point x="51" y="223" type="line" smooth="yes"/>
      <point x="51" y="260"/>
      <point x="69" y="278"/>
      <point x="106" y="278" type="curve" smooth="yes"/>
      <point x="256" y="278" type="line"/>
      <point x="256" y="421" type="line"/>
      <point x="119" y="421" type="line"/>
      <point x="119" y="340" type="line"/>
      <point x="56" y="340" type="line"/>
      <point x="56" y="420" type="line" smooth="yes"/>
      <point x="56" y="457"/>
      <point x="74" y="475"/>
      <point x="111" y="475" type="curve" smooth="yes"/>
      <point x="463" y="475" type="line" smooth="yes"/>
      <point x="500" y="475"/>
      <point x="518" y="457"/>
      <point x="518" y="420" type="curve" smooth="yes"/>
      <point x="518" y="248" type="line"/>
      <point x="495" y="226" type="line"/>
      <point x="318" y="226" type="line"/>
      <point x="318" y="54" type="line"/>
      <point x="455" y="54" type="line"/>
      <point x="455" y="141" type="line"/>
      <point x="518" y="141" type="line"/>
    </contour>
    <contour>
      <point x="455" y="277" type="line"/>
      <point x="455" y="421" type="line"/>
      <point x="318" y="421" type="line"/>
      <point x="318" y="277" type="line"/>
    </contour>
    <contour>
      <point x="256" y="57" type="line"/>
      <point x="256" y="227" type="line"/>
      <point x="114" y="227" type="line"/>
      <point x="114" y="53" type="line"/>
    </contour>
  </outline>
</glyph>
<glyph name="eth" format="2">
  <advance width="379"/>
  <unicode hex="00F0"/>
  <outline>
    <contour>
      <point x="377" y="595" type="line"/>
      <point x="326" y="581" type="line"/>
      <point x="326" y="55" type="line" smooth="yes"/>
      <point x="326" y="18"/>
      <point x="308" y="0"/>
      <point x="271" y="0" type="curve" smooth="yes"/>
      <point x="108" y="0" type="line" smooth="yes"/>
      <point x="71" y="0"/>
      <point x="53" y="18"/>
      <point x="53" y="55" type="curve" smooth="yes"/>
      <point x="53" y="420" type="line" smooth="yes"/>
      <point x="53" y="457"/>
      <point x="71" y="475"/>
      <point x="108" y="475" type="curve" smooth="yes"/>
      <point x="263" y="475" type="line"/>
      <point x="263" y="563" type="line"/>
      <point x="202" y="546" type="line"/>
      <point x="199" y="546" type="line"/>
      <point x="199" y="606" type="line"/>
      <point x="263" y="624" type="line"/>
      <point x="263" y="708" type="line"/>
      <point x="121" y="708" type="line"/>
      <point x="121" y="612" type="line"/>
      <point x="58" y="612" type="line"/>
      <point x="58" y="709" type="line" smooth="yes"/>
      <point x="58" y="746"/>
      <point x="76" y="764"/>
      <point x="113" y="764" type="curve" smooth="yes"/>
      <point x="271" y="764" type="line" smooth="yes"/>
      <point x="308" y="764"/>
      <point x="326" y="746"/>
      <point x="326" y="709" type="curve" smooth="yes"/>
      <point x="326" y="641" type="line"/>
      <point x="374" y="654" type="line"/>
      <point x="377" y="654" type="line"/>
    </contour>
    <contour>
      <point x="263" y="57" type="line"/>
      <point x="263" y="418" type="line"/>
      <point x="118" y="418" type="line"/>
      <point x="118" y="57" type="line"/>
    </contour>
  </outline>
</glyph>
<glyph name="oslash" format="2">
  <advance width="379"/>
  <unicode hex="00F8"/>
  <anchor x="190" y="475" name="top"/>
  <outline>
    <contour>
      <point x="326" y="55" type="line"/>
      <point x="326" y="18"/>
      <point x="308" y="0"/>
      <point x="271" y="0" type="curve" smooth="yes"/>
      <point x="143" y="0" type="line"/>
      <point x="118" y="-75" type="line"/>
      <point x="56" y="-75" type="line"/>
      <point x="56" y="-71" type="line"/>
      <point x="81" y="4" type="line"/>
      <point x="62" y="12"/>
      <point x="53" y="29"/>
      <point x="53" y="55" type="curve" smooth="yes"/>
      <point x="53" y="420" type="line" smooth="yes"/>
      <point x="53" y="457"/>
      <point x="71" y="475"/>
      <point x="108" y="475" type="curve" smooth="yes"/>
      <point x="236" y="475" type="line"/>
      <point x="261" y="550" type="line"/>
      <point x="323" y="550" type="line"/>
      <point x="323" y="546" type="line"/>
      <point x="298" y="471" type="line"/>
      <point x="317" y="463"/>
      <point x="326" y="446"/>
      <point x="326" y="420" type="curve" smooth="yes"/>
    </contour>
    <contour>
      <point x="218" y="419" type="line"/>
      <point x="117" y="419" type="line"/>
      <point x="117" y="99" type="line"/>
    </contour>
    <contour>
      <point x="262" y="56" type="line"/>
      <point x="262" y="375" type="line"/>
      <point x="160" y="56" type="line"/>
    </contour>
  </outline>
</glyph>
<glyph name="Hbar" format="2">
  <advance width="472"/>
  <unicode hex="0126"/>
  <outline>
    <contour>
      <point x="438" y="623" type="line"/>
      <point x="438" y="559" type="line"/>
      <point x="34" y="559" type="line"/>
      <point x="34" y="623" type="line"/>
    </contour>
    <component base="H" xOffset="15"/>
  </outline>
</glyph>
<glyph name="hbar" format="2">
  <advance width="378"/>
  <unicode hex="0127"/>
  <guideline x="6" y="710" angle="90" identifier="svula6YzJt"/>
  <outline>
    <contour>
      <point x="237" y="578" type="line"/>
      <point x="9" y="578" type="line"/>
      <point x="9" y="640" type="line"/>
      <point x="237" y="640" type="line"/>
    </contour>
    <component base="h"/>
  </outline>
</glyph>
<glyph name="dotlessi" format="2">
  <advance width="178"/>
  <unicode hex="0131"/>
  <anchor x="89.0" y="475" name="top"/>
  <outline>
    <contour>
      <point x="121" y="0" type="line"/>
      <point x="57" y="0" type="line"/>
      <point x="57" y="475" type="line"/>
      <point x="121" y="475" type="line"/>
    </contour>
  </outline>
</glyph>
<glyph name="Lslash" format="2">
  <advance width="361"/>
  <unicode hex="0141"/>
  <outline>
    <contour>
      <point x="329" y="0" type="line"/>
      <point x="85" y="0" type="line"/>
      <point x="85" y="269" type="line"/>
      <point x="38" y="236" type="line"/>
      <point x="34" y="236" type="line"/>
      <point x="34" y="308" type="line"/>
      <point x="85" y="342" type="line"/>
      <point x="85" y="764" type="line"/>
      <point x="152" y="764" type="line"/>
      <point x="152" y="384" type="line"/>
      <point x="242" y="447" type="line"/>
      <point x="246" y="447" type="line"/>
      <point x="246" y="375" type="line"/>
      <point x="152" y="311" type="line"/>
      <point x="152" y="60" type="line"/>
      <point x="329" y="60" type="line"/>
    </contour>
  </outline>
</glyph>
<glyph name="Eng" format="2">
  <advance width="437"/>
  <unicode hex="014A"/>
  <outline>
    <contour>
      <point x="376" y="-125" type="line"/>
      <point x="376" y="-162"/>
      <point x="358" y="-180"/>
      <point x="321" y="-180" type="curve" smooth="yes"/>
      <point x="240" y="-180" type="line"/>
      <point x="240" y="-123" type="line"/>
      <point x="312" y="-123" type="line"/>
      <point x="312" y="475" type="line"/>
      <point x="376" y="475" type="line"/>
    </contour>
    <component base="N"/>
    <component base="engtail" xOffset="226"/>
  </outline>
</glyph>
<glyph name="eng" format="2">
  <advance width="378"/>
  <unicode hex="014B"/>
  <outline>
    <contour>
      <point x="261" y="-120" type="line"/>
      <point x="261.0" y="-120.0"/>
      <point x="261.0" y="-120.0"/>
      <point x="261" y="-120" type="curve"/>
      <point x="261" y="86" type="line"/>
      <point x="326" y="86" type="line"/>
      <point x="326" y="-125" type="line" smooth="yes"/>
      <point x="326.0" y="-162.52"/>
      <point x="307.52" y="-180.0"/>
      <point x="270" y="-180" type="curve" smooth="yes"/>
      <point x="189" y="-180" type="line"/>
      <point x="189" y="-120" type="line"/>
    </contour>
    <component base="n"/>
  </outline>
</glyph>
<glyph name="OE" format="2">
  <advance width="590"/>
  <unicode hex="0152"/>
  <outline>
    <contour>
      <point x="545" y="0" type="line"/>
      <point x="115" y="0" type="line" smooth="yes"/>
      <point x="83" y="0"/>
      <point x="61" y="22"/>
      <point x="61" y="54" type="curve" smooth="yes"/>
      <point x="61" y="710" type="line" smooth="yes"/>
      <point x="61" y="742"/>
      <point x="83" y="764"/>
      <point x="115" y="764" type="curve" smooth="yes"/>
      <point x="542" y="764" type="line"/>
      <point x="542" y="704" type="line"/>
      <point x="364" y="704" type="line"/>
      <point x="364" y="419" type="line"/>
      <point x="527" y="419" type="line"/>
      <point x="527" y="358" type="line"/>
      <point x="364" y="358" type="line"/>
      <point x="364" y="60" type="line"/>
      <point x="545" y="60" type="line"/>
    </contour>
    <contour>
      <point x="296" y="60" type="line"/>
      <point x="296" y="704" type="line"/>
      <point x="129" y="704" type="line"/>
      <point x="129" y="60" type="line"/>
    </contour>
  </outline>
</glyph>
<glyph name="oe" format="1">
  <advance width="573"/>
  <unicode hex="0153"/>
  <outline>
    <contour>
      <point x="520" y="55" type="line"/>
      <point x="520" y="18"/>
      <point x="502" y="0"/>
      <point x="465" y="0" type="curve" smooth="yes"/>
      <point x="108" y="0" type="line" smooth="yes"/>
      <point x="71" y="0"/>
      <point x="53" y="18"/>
      <point x="53" y="55" type="curve" smooth="yes"/>
      <point x="53" y="420" type="line" smooth="yes"/>
      <point x="53" y="457"/>
      <point x="71" y="475"/>
      <point x="108" y="475" type="curve" smooth="yes"/>
      <point x="465" y="475" type="line" smooth="yes"/>
      <point x="502" y="475"/>
      <point x="520" y="457"/>
      <point x="520" y="420" type="curve" smooth="yes"/>
      <point x="520" y="249" type="line"/>
      <point x="497" y="226" type="line"/>
      <point x="320" y="226" type="line"/>
      <point x="320" y="54" type="line"/>
      <point x="458" y="54" type="line"/>
      <point x="458" y="141" type="line"/>
      <point x="520" y="141" type="line"/>
    </contour>
    <contour>
      <point x="458" y="278" type="line"/>
      <point x="458" y="421" type="line"/>
      <point x="320" y="421" type="line"/>
      <point x="320" y="278" type="line"/>
    </contour>
    <contour>
      <point x="259" y="54" type="line"/>
      <point x="259" y="421" type="line"/>
      <point x="117" y="421" type="line"/>
      <point x="117" y="54" type="line"/>
    </contour>
  </outline>
</glyph>
<glyph name="Tbar" format="2">
  <advance width="343"/>
  <unicode hex="0166"/>
  <outline>
    <contour>
      <point x="272" y="326" type="line"/>
      <point x="71" y="326" type="line"/>
      <point x="71" y="387" type="line"/>
      <point x="272" y="387" type="line"/>
    </contour>
    <component base="T"/>
  </outline>
</glyph>
<glyph name="florin" format="2">
  <advance width="305"/>
  <unicode hex="0192"/>
  <outline>
    <contour>
      <point x="299" y="764" type="line"/>
      <point x="292" y="707" type="line"/>
      <point x="199" y="707" type="line"/>
      <point x="167" y="475" type="line"/>
      <point x="249" y="475" type="line"/>
      <point x="240" y="418" type="line"/>
      <point x="158" y="418" type="line"/>
      <point x="82" y="-125" type="line" smooth="yes"/>
      <point x="77" y="-162"/>
      <point x="57" y="-180"/>
      <point x="20" y="-180" type="curve" smooth="yes"/>
      <point x="-61" y="-180" type="line"/>
      <point x="-54" y="-123" type="line"/>
      <point x="18" y="-123" type="line"/>
      <point x="94" y="418" type="line"/>
      <point x="39" y="418" type="line"/>
      <point x="48" y="475" type="line"/>
      <point x="103" y="475" type="line"/>
      <point x="135" y="709" type="line" smooth="yes"/>
      <point x="140" y="746"/>
      <point x="161" y="764"/>
      <point x="198" y="764" type="curve" smooth="yes"/>
    </contour>
  </outline>
</glyph>
<glyph name="dotlessj" format="2">
  <advance width="178"/>
  <unicode hex="0237"/>
  <anchor x="89.0" y="475" name="top"/>
  <outline>
    <contour>
      <point x="121" y="-125" type="line"/>
      <point x="121" y="-162"/>
      <point x="103" y="-180"/>
      <point x="66" y="-180" type="curve" smooth="yes"/>
      <point x="-15" y="-180" type="line"/>
      <point x="-15" y="-123" type="line"/>
      <point x="57" y="-123" type="line"/>
      <point x="57" y="475" type="line"/>
      <point x="121" y="475" type="line"/>
    </contour>
  </outline>
</glyph>
<glyph name="caron" format="2">
  <advance width="400"/>
  <unicode hex="02C7"/>
  <outline>
    <contour>
      <point x="318" y="629" type="line"/>
      <point x="219" y="517" type="line"/>
      <point x="181" y="517" type="line"/>
      <point x="82" y="629" type="line"/>
      <point x="82" y="632" type="line"/>
      <point x="124" y="632" type="line"/>
      <point x="201" y="574" type="line"/>
      <point x="278" y="632" type="line"/>
      <point x="318" y="632" type="line"/>
    </contour>
  </outline>
</glyph>
<glyph name="breve" format="2">
  <advance width="400"/>
  <unicode hex="02D8"/>
  <outline>
    <contour>
      <point x="294" y="562" type="line"/>
      <point x="294" y="532"/>
      <point x="279" y="517"/>
      <point x="249" y="517" type="curve" smooth="yes"/>
      <point x="151" y="517" type="line" smooth="yes"/>
      <point x="121" y="517"/>
      <point x="106" y="532"/>
      <point x="106" y="562" type="curve" smooth="yes"/>
      <point x="106" y="625" type="line"/>
      <point x="157" y="625" type="line"/>
      <point x="157" y="564" type="line"/>
      <point x="243" y="564" type="line"/>
      <point x="243" y="625" type="line"/>
      <point x="294" y="625" type="line"/>
    </contour>
  </outline>
</glyph>
<glyph name="dotaccent" format="2">
  <advance width="400"/>
  <unicode hex="02D9"/>
  <outline>
    <contour>
      <point x="236" y="517" type="line"/>
      <point x="164" y="517" type="line"/>
      <point x="164" y="591" type="line"/>
      <point x="236" y="591" type="line"/>
    </contour>
  </outline>
</glyph>
<glyph name="ring" format="1">
  <advance width="400"/>
  <unicode hex="02DA"/>
  <outline>
    <contour>
      <point x="294" y="562" type="line"/>
      <point x="294" y="532"/>
      <point x="279" y="517"/>
      <point x="249" y="517" type="curve" smooth="yes"/>
      <point x="151" y="517" type="line" smooth="yes"/>
      <point x="121" y="517"/>
      <point x="106" y="532"/>
      <point x="106" y="562" type="curve" smooth="yes"/>
      <point x="106" y="654" type="line" smooth="yes"/>
      <point x="106" y="684"/>
      <point x="121" y="699"/>
      <point x="151" y="699" type="curve" smooth="yes"/>
      <point x="249" y="699" type="line" smooth="yes"/>
      <point x="279" y="699"/>
      <point x="294" y="684"/>
      <point x="294" y="654" type="curve" smooth="yes"/>
    </contour>
    <contour>
      <point x="244" y="562" type="line"/>
      <point x="244" y="654" type="line"/>
      <point x="156" y="654" type="line"/>
      <point x="156" y="562" type="line"/>
    </contour>
  </outline>
</glyph>
<glyph name="ogonek" format="2">
  <advance width="400"/>
  <unicode hex="02DB"/>
  <outline>
    <contour>
      <point x="282" y="-180" type="line"/>
      <point x="149" y="-180" type="line" smooth="yes"/>
      <point x="124" y="-180"/>
      <point x="110" y="-167"/>
      <point x="110" y="-141" type="curve" smooth="yes"/>
      <point x="110" y="-84" type="line" smooth="yes"/>
      <point x="110" y="-63"/>
      <point x="116" y="-53"/>
      <point x="129" y="-40" type="curve" smooth="yes"/>
      <point x="181" y="10" type="line"/>
      <point x="244" y="10" type="line"/>
      <point x="244" y="6" type="line"/>
      <point x="165" y="-73" type="line"/>
      <point x="165" y="-134" type="line"/>
      <point x="282" y="-134" type="line"/>
    </contour>
  </outline>
</glyph>
<glyph name="macroncmb" format="2">
  <unicode hex="0304"/>
  <anchor x="0" y="475.0" name="_top"/>
  <outline>
    <contour>
      <point x="108" y="532" type="line"/>
      <point x="-108" y="532" type="line"/>
      <point x="-108" y="584" type="line"/>
      <point x="108" y="584" type="line"/>
    </contour>
  </outline>
</glyph>
<glyph name="brevecmb" format="2">
  <unicode hex="0306"/>
  <anchor x="0" y="475.0" name="_top"/>
  <outline>
    <contour>
      <point x="94" y="562" type="line"/>
      <point x="94" y="532"/>
      <point x="79" y="517"/>
      <point x="49" y="517" type="curve" smooth="yes"/>
      <point x="-49" y="517" type="line" smooth="yes"/>
      <point x="-79" y="517"/>
      <point x="-94" y="532"/>
      <point x="-94" y="562" type="curve" smooth="yes"/>
      <point x="-94" y="625" type="line"/>
      <point x="-43" y="625" type="line"/>
      <point x="-43" y="564" type="line"/>
      <point x="43" y="564" type="line"/>
      <point x="43" y="625" type="line"/>
      <point x="94" y="625" type="line"/>
    </contour>
  </outline>
</glyph>
<glyph name="dotaccentcmb" format="2">
  <unicode hex="0307"/>
  <anchor x="0" y="475.0" name="_top"/>
  <outline>
    <contour>
      <point x="33" y="513" type="line"/>
      <point x="-33" y="513" type="line"/>
      <point x="-33" y="595" type="line"/>
      <point x="33" y="595" type="line"/>
    </contour>
  </outline>
</glyph>
<glyph name="hungarumlautcmb" format="2">
  <unicode hex="030B"/>
  <anchor x="0" y="475.0" name="_top"/>
  <outline>
    <contour>
      <point x="61" y="630" type="line"/>
      <point x="-39" y="517" type="line"/>
      <point x="-84" y="517" type="line"/>
      <point x="-84" y="520" type="line"/>
      <point x="-31" y="632" type="line"/>
      <point x="61" y="632" type="line"/>
    </contour>
    <contour>
      <point x="184" y="630" type="line"/>
      <point x="84" y="517" type="line"/>
      <point x="39" y="517" type="line"/>
      <point x="39" y="520" type="line"/>
      <point x="92" y="632" type="line"/>
      <point x="184" y="632" type="line"/>
    </contour>
  </outline>
</glyph>
<glyph name="commaturnedabovecmb" format="2">
  <unicode hex="0312"/>
  <anchor x="0" y="475.0" name="_top"/>
  <outline>
    <contour>
      <point x="-38" y="517" type="line"/>
      <point x="5" y="657" type="line"/>
      <point x="52" y="657" type="line"/>
      <point x="38" y="517" type="line"/>
    </contour>
  </outline>
</glyph>
<glyph name="commabelowcmb" format="2">
  <unicode hex="0326"/>
  <anchor x="0" y="0" name="_bottom"/>
  <outline>
    <contour>
      <point x="37" y="-50" type="line"/>
      <point x="-6" y="-190" type="line"/>
      <point x="-53" y="-190" type="line"/>
      <point x="-39" y="-50" type="line"/>
    </contour>
  </outline>
</glyph>
<glyph name="cedillacmb" format="2">
  <unicode hex="0327"/>
  <anchor x="0" y="0" name="_bottom"/>
  <outline>
    <contour>
      <point x="-27" y="10" type="line"/>
      <point x="25" y="10" type="line"/>
      <point x="25" y="-24" type="line"/>
      <point x="68" y="-47" type="line" smooth="yes"/>
      <point x="85" y="-56"/>
      <point x="90.0" y="-65"/>
      <point x="90" y="-86" type="curve" smooth="yes"/>
      <point x="90" y="-141" type="line" smooth="yes"/>
      <point x="90.0" y="-167"/>
      <point x="77" y="-180.0" name="inserted"/>
      <point x="51" y="-180" type="curve" smooth="yes"/>
      <point x="-49" y="-180" type="line" smooth="yes"/>
      <point x="-75" y="-180.0"/>
      <point x="-88.0" y="-167" name="inserted"/>
      <point x="-88" y="-141" type="curve" smooth="yes"/>
      <point x="-88" y="-86" type="line"/>
      <point x="-37" y="-86" type="line"/>
      <point x="-37" y="-86"/>
      <point x="-37.0" y="-134.0"/>
      <point x="-37" y="-134" type="curve"/>
      <point x="38" y="-134" type="line"/>
      <point x="38" y="-84" type="line"/>
      <point x="-4" y="-62" type="line" smooth="yes"/>
      <point x="-21" y="-53"/>
      <point x="-27.0" y="-44"/>
      <point x="-27" y="-23" type="curve" smooth="yes"/>
    </contour>
  </outline>
</glyph>
<glyph name="ogonekcmb" format="2">
  <unicode hex="0328"/>
  <anchor x="0" y="0" name="_ogonek"/>
  <outline>
    <contour>
      <point x="-67" y="-40" type="curve" smooth="yes"/>
      <point x="-15" y="10" type="line"/>
      <point x="48" y="10" type="line"/>
      <point x="48" y="6" type="line"/>
      <point x="-31" y="-73" type="line"/>
      <point x="-31" y="-134" type="line"/>
      <point x="86" y="-134" type="line"/>
      <point x="86" y="-180" type="line"/>
      <point x="-47" y="-180" type="line" smooth="yes"/>
      <point x="-73" y="-180.0"/>
      <point x="-86.0" y="-167" name="inserted"/>
      <point x="-86" y="-141" type="curve" smooth="yes"/>
      <point x="-86" y="-84" type="line" smooth="yes"/>
      <point x="-86.0" y="-63"/>
      <point x="-80" y="-53"/>
    </contour>
  </outline>
</glyph>
<glyph name="Germandbls" format="2">
  <advance width="452"/>
  <unicode hex="1E9E"/>
  <outline>
    <contour>
      <point x="226" y="0" type="line" smooth="yes"/>
      <point x="193.84" y="0.0"/>
      <point x="171.0" y="21.839999999999996"/>
      <point x="171" y="54" type="curve" smooth="yes"/>
      <point x="171" y="208" type="line"/>
      <point x="239" y="208" type="line"/>
      <point x="239" y="64" type="line"/>
      <point x="239.0" y="64.0"/>
      <point x="239.0" y="64.0"/>
      <point x="239" y="64" type="curve"/>
      <point x="354" y="64" type="line"/>
      <point x="354.0" y="64.0"/>
      <point x="354.0" y="64.0"/>
      <point x="354" y="64" type="curve"/>
      <point x="354" y="241" type="line"/>
      <point x="354.0" y="241.0"/>
      <point x="354.0" y="241.0"/>
      <point x="354" y="241" type="curve"/>
      <point x="198" y="427" type="line"/>
      <point x="329" y="700" type="line"/>
      <point x="93" y="700" type="line"/>
      <point x="93" y="764" type="line"/>
      <point x="405" y="764" type="line"/>
      <point x="405" y="710" type="line"/>
      <point x="278" y="435" type="line"/>
      <point x="401" y="291" type="line" smooth="yes"/>
      <point x="414.4" y="274.92"/>
      <point x="422.0" y="255.44" name="inserted"/>
      <point x="422" y="234" type="curve" smooth="yes"/>
      <point x="422" y="54" type="line" smooth="yes"/>
      <point x="422.0" y="21.839999999999996"/>
      <point x="400.16" y="0.0"/>
      <point x="368" y="0" type="curve" smooth="yes"/>
    </contour>
    <contour>
      <point x="61" y="0" type="line"/>
      <point x="61" y="764" type="line"/>
      <point x="129" y="764" type="line"/>
      <point x="129" y="0" type="line"/>
    </contour>
  </outline>
</glyph>
<glyph name="endash" format="1">
  <advance width="425"/>
  <unicode hex="2013"/>
  <outline>
    <contour>
      <point x="378" y="261" type="line"/>
      <point x="47" y="261" type="line"/>
      <point x="47" y="322" type="line"/>
      <point x="378" y="322" type="line"/>
    </contour>
  </outline>
</glyph>
<glyph name="emdash" format="2">
  <advance width="631"/>
  <unicode hex="2014"/>
  <outline>
    <contour>
      <point x="583" y="261" type="line"/>
      <point x="47" y="261" type="line"/>
      <point x="47" y="322" type="line"/>
      <point x="583" y="322" type="line"/>
    </contour>
  </outline>
</glyph>
<glyph name="quoteleft" format="1">
  <advance width="166"/>
  <unicode hex="2018"/>
  <unicode hex="02BB"/>
  <outline>
    <contour>
      <point x="124" y="764" type="line"/>
      <point x="106" y="524" type="line"/>
      <point x="33" y="524" type="line"/>
      <point x="80" y="764" type="line"/>
    </contour>
  </outline>
</glyph>
<glyph name="quoteright" format="1">
  <advance width="166"/>
  <unicode hex="2019"/>
  <unicode hex="02BC"/>
  <outline>
    <contour>
      <point x="133" y="764" type="line"/>
      <point x="87" y="524" type="line"/>
      <point x="43" y="524" type="line"/>
      <point x="61" y="764" type="line"/>
    </contour>
  </outline>
</glyph>
<glyph name="quotesinglbase" format="2">
  <advance width="166"/>
  <unicode hex="201A"/>
  <outline>
    <contour>
      <point x="125" y="123" type="line"/>
      <point x="78" y="-117" type="line"/>
      <point x="34" y="-117" type="line"/>
      <point x="52" y="123" type="line"/>
    </contour>
  </outline>
</glyph>
<glyph name="quotedblleft" format="1">
  <advance width="307"/>
  <unicode hex="201C"/>
  <outline>
    <contour>
      <point x="264" y="764" type="line"/>
      <point x="246" y="524" type="line"/>
      <point x="174" y="524" type="line"/>
      <point x="220" y="764" type="line"/>
    </contour>
    <contour>
      <point x="124" y="764" type="line"/>
      <point x="106" y="524" type="line"/>
      <point x="33" y="524" type="line"/>
      <point x="80" y="764" type="line"/>
    </contour>
  </outline>
</glyph>
<glyph name="quotedblright" format="2">
  <advance width="307"/>
  <unicode hex="201D"/>
  <outline>
    <contour>
      <point x="274" y="764" type="line"/>
      <point x="227" y="524" type="line"/>
      <point x="183" y="524" type="line"/>
      <point x="201" y="764" type="line"/>
    </contour>
    <contour>
      <point x="133" y="764" type="line"/>
      <point x="87" y="524" type="line"/>
      <point x="43" y="524" type="line"/>
      <point x="61" y="764" type="line"/>
    </contour>
  </outline>
</glyph>
<glyph name="quotedblbase" format="1">
  <advance width="307"/>
  <unicode hex="201E"/>
  <outline>
    <contour>
      <point x="274" y="123" type="line"/>
      <point x="227" y="-117" type="line"/>
      <point x="183" y="-117" type="line"/>
      <point x="201" y="123" type="line"/>
    </contour>
    <contour>
      <point x="133" y="123" type="line"/>
      <point x="87" y="-117" type="line"/>
      <point x="43" y="-117" type="line"/>
      <point x="61" y="123" type="line"/>
    </contour>
  </outline>
</glyph>
<glyph name="dagger" format="2">
  <advance width="439"/>
  <unicode hex="2020"/>
  <outline>
    <contour>
      <point x="398" y="500" type="line"/>
      <point x="252" y="500" type="line"/>
      <point x="252" y="0" type="line"/>
      <point x="187" y="0" type="line"/>
      <point x="187" y="500" type="line"/>
      <point x="41" y="500" type="line"/>
      <point x="41" y="557" type="line"/>
      <point x="187" y="557" type="line"/>
      <point x="187" y="764" type="line"/>
      <point x="252" y="764" type="line"/>
      <point x="252" y="557" type="line"/>
      <point x="398" y="557" type="line"/>
    </contour>
  </outline>
</glyph>
<glyph name="daggerdbl" format="1">
  <advance width="439"/>
  <unicode hex="2021"/>
  <outline>
    <contour>
      <point x="398" y="207" type="line"/>
      <point x="251" y="207" type="line"/>
      <point x="251" y="0" type="line"/>
      <point x="188" y="0" type="line"/>
      <point x="188" y="207" type="line"/>
      <point x="41" y="207" type="line"/>
      <point x="41" y="264" type="line"/>
      <point x="188" y="264" type="line"/>
      <point x="188" y="500" type="line"/>
      <point x="41" y="500" type="line"/>
      <point x="41" y="557" type="line"/>
      <point x="188" y="557" type="line"/>
      <point x="188" y="764" type="line"/>
      <point x="251" y="764" type="line"/>
      <point x="251" y="557" type="line"/>
      <point x="398" y="557" type="line"/>
      <point x="398" y="500" type="line"/>
      <point x="251" y="500" type="line"/>
      <point x="251" y="264" type="line"/>
      <point x="398" y="264" type="line"/>
    </contour>
  </outline>
</glyph>
<glyph name="bullet" format="1">
  <advance width="422"/>
  <unicode hex="2022"/>
  <outline>
    <contour>
      <point x="358" y="292" type="line"/>
      <point x="358" y="255"/>
      <point x="338" y="235"/>
      <point x="301" y="235" type="curve" smooth="yes"/>
      <point x="121" y="235" type="line" smooth="yes"/>
      <point x="84" y="235"/>
      <point x="64" y="255"/>
      <point x="64" y="292" type="curve" smooth="yes"/>
      <point x="64" y="471" type="line" smooth="yes"/>
      <point x="64" y="508"/>
      <point x="84" y="528"/>
      <point x="121" y="528" type="curve" smooth="yes"/>
      <point x="301" y="528" type="line" smooth="yes"/>
      <point x="338" y="528"/>
      <point x="358" y="508"/>
      <point x="358" y="471" type="curve" smooth="yes"/>
    </contour>
  </outline>
</glyph>
<glyph name="ellipsis" format="2">
  <advance width="499"/>
  <unicode hex="2026"/>
  <outline>
    <contour>
      <point x="452" y="0" type="line"/>
      <point x="379" y="0" type="line"/>
      <point x="379" y="86" type="line"/>
      <point x="452" y="86" type="line"/>
    </contour>
    <contour>
      <point x="286" y="0" type="line"/>
      <point x="213" y="0" type="line"/>
      <point x="213" y="86" type="line"/>
      <point x="286" y="86" type="line"/>
    </contour>
    <contour>
      <point x="120" y="0" type="line"/>
      <point x="46" y="0" type="line"/>
      <point x="46" y="86" type="line"/>
      <point x="120" y="86" type="line"/>
    </contour>
  </outline>
</glyph>
<glyph name="guilsinglleft" format="2">
  <advance width="280"/>
  <unicode hex="2039"/>
  <outline>
    <contour>
      <point x="229" y="76" type="line"/>
      <point x="160" y="76" type="line"/>
      <point x="38" y="261" type="line"/>
      <point x="38" y="281" type="line"/>
      <point x="160" y="466" type="line"/>
      <point x="229" y="466" type="line"/>
      <point x="229" y="462" type="line"/>
      <point x="106" y="271" type="line"/>
      <point x="229" y="80" type="line"/>
    </contour>
  </outline>
</glyph>
<glyph name="guilsinglright" format="1">
  <advance width="280"/>
  <unicode hex="203A"/>
  <outline>
    <contour>
      <point x="242" y="261" type="line"/>
      <point x="120" y="76" type="line"/>
      <point x="51" y="76" type="line"/>
      <point x="51" y="80" type="line"/>
      <point x="174" y="271" type="line"/>
      <point x="51" y="462" type="line"/>
      <point x="51" y="466" type="line"/>
      <point x="120" y="466" type="line"/>
      <point x="242" y="281" type="line"/>
    </contour>
  </outline>
</glyph>
<glyph name="fraction" format="1">
  <advance width="432"/>
  <unicode hex="2044"/>
  <unicode hex="2215"/>
  <outline>
    <contour>
      <point x="410" y="760" type="line"/>
      <point x="87" y="0" type="line"/>
      <point x="22" y="0" type="line"/>
      <point x="22" y="4" type="line"/>
      <point x="345" y="764" type="line"/>
      <point x="410" y="764" type="line"/>
    </contour>
  </outline>
</glyph>
<glyph name="uni2117" format="2">
  <advance width="564"/>
  <unicode hex="2117"/>
  <outline>
    <contour>
      <point x="503" y="32" type="line"/>
      <point x="503" y="12"/>
      <point x="491" y="0"/>
      <point x="471" y="0" type="curve" smooth="yes"/>
      <point x="93" y="0" type="line" smooth="yes"/>
      <point x="73" y="0"/>
      <point x="61" y="12"/>
      <point x="61" y="32" type="curve" smooth="yes"/>
      <point x="61" y="732" type="line" smooth="yes"/>
      <point x="61" y="752"/>
      <point x="73" y="764"/>
      <point x="93" y="764" type="curve" smooth="yes"/>
      <point x="471" y="764" type="line" smooth="yes"/>
      <point x="491" y="764"/>
      <point x="503" y="752"/>
      <point x="503" y="732" type="curve" smooth="yes"/>
    </contour>
    <contour>
      <point x="466" y="34" type="line"/>
      <point x="466" y="730" type="line"/>
      <point x="98" y="730" type="line"/>
      <point x="98" y="34" type="line"/>
    </contour>
    <contour>
      <point x="375" y="370" type="line"/>
      <point x="375" y="350"/>
      <point x="361" y="335"/>
      <point x="340" y="335" type="curve" smooth="yes"/>
      <point x="241" y="335" type="line"/>
      <point x="241" y="169" type="line"/>
      <point x="191" y="169" type="line"/>
      <point x="191" y="599" type="line"/>
      <point x="340" y="599" type="line" smooth="yes"/>
      <point x="361" y="599"/>
      <point x="375" y="585"/>
      <point x="375" y="565" type="curve" smooth="yes"/>
    </contour>
    <contour>
      <point x="325" y="380" type="line"/>
      <point x="325" y="554" type="line"/>
      <point x="241" y="554" type="line"/>
      <point x="241" y="380" type="line"/>
    </contour>
  </outline>
</glyph>
<glyph name="trademark" format="2">
  <advance width="545"/>
  <unicode hex="2122"/>
  <outline>
    <contour>
      <point x="494" y="326" type="line"/>
      <point x="448" y="326" type="line"/>
      <point x="448" y="594" type="line"/>
      <point x="391" y="372" type="line"/>
      <point x="375" y="372" type="line"/>
      <point x="318" y="594" type="line"/>
      <point x="318" y="326" type="line"/>
      <point x="272" y="326" type="line"/>
      <point x="272" y="764" type="line"/>
      <point x="316" y="764" type="line"/>
      <point x="383" y="489" type="line"/>
      <point x="452" y="764" type="line"/>
      <point x="494" y="764" type="line"/>
    </contour>
    <contour>
      <point x="221" y="720" type="line"/>
      <point x="152" y="720" type="line"/>
      <point x="152" y="326" type="line"/>
      <point x="106" y="326" type="line"/>
      <point x="106" y="720" type="line"/>
      <point x="37" y="720" type="line"/>
      <point x="37" y="764" type="line"/>
      <point x="221" y="764" type="line"/>
    </contour>
  </outline>
</glyph>
<glyph name="radical" format="1">
  <advance width="433"/>
  <unicode hex="221A"/>
  <outline>
    <contour>
      <point x="412" y="764" type="line"/>
      <point x="203" y="-1" type="line"/>
      <point x="145" y="-1" type="line"/>
      <point x="17" y="261" type="line"/>
      <point x="17" y="264" type="line"/>
      <point x="88" y="264" type="line"/>
      <point x="168" y="80" type="line"/>
      <point x="344" y="764" type="line"/>
    </contour>
  </outline>
</glyph>
<glyph name="apple" format="2">
  <advance width="445"/>
  <unicode hex="F8FF"/>
  <outline>
    <contour>
      <point x="384" y="48" type="line"/>
      <point x="384" y="20"/>
      <point x="363" y="0"/>
      <point x="335" y="0" type="curve" smooth="yes"/>
      <point x="110" y="0" type="line" smooth="yes"/>
      <point x="81" y="0"/>
      <point x="61" y="20"/>
      <point x="61" y="48" type="curve" smooth="yes"/>
      <point x="61" y="716" type="line" smooth="yes"/>
      <point x="61" y="744"/>
      <point x="81" y="764"/>
      <point x="110" y="764" type="curve" smooth="yes"/>
      <point x="335" y="764" type="line" smooth="yes"/>
      <point x="363" y="764"/>
      <point x="384" y="744"/>
      <point x="384" y="716" type="curve" smooth="yes"/>
    </contour>
    <contour>
      <point x="327" y="582" type="line"/>
      <point x="327" y="711" type="line"/>
      <point x="117" y="711" type="line"/>
      <point x="117" y="582" type="line"/>
    </contour>
    <contour>
      <point x="327" y="406" type="line"/>
      <point x="327" y="533" type="line"/>
      <point x="117" y="533" type="line"/>
      <point x="117" y="406" type="line"/>
    </contour>
    <contour>
      <point x="327" y="230" type="line"/>
      <point x="327" y="358" type="line"/>
      <point x="117" y="358" type="line"/>
      <point x="117" y="230" type="line"/>
    </contour>
    <contour>
      <point x="327" y="53" type="line"/>
      <point x="327" y="181" type="line"/>
      <point x="117" y="181" type="line"/>
      <point x="117" y="53" type="line"/>
    </contour>
  </outline>
</glyph>
<glyph name="fi" format="2">
  <advance width="426"/>
  <unicode hex="FB01"/>
  <outline>
    <contour>
      <point x="369" y="0" type="line"/>
      <point x="305" y="0" type="line"/>
      <point x="305" y="418" type="line"/>
      <point x="141" y="418" type="line"/>
      <point x="141" y="0" type="line"/>
      <point x="77" y="0" type="line"/>
      <point x="77" y="418" type="line"/>
      <point x="22" y="418" type="line"/>
      <point x="22" y="475" type="line"/>
      <point x="77" y="475" type="line"/>
      <point x="77" y="709" type="line" smooth="yes"/>
      <point x="77" y="746"/>
      <point x="95" y="764"/>
      <point x="132" y="764" type="curve" smooth="yes"/>
      <point x="314" y="764" type="line" smooth="yes"/>
      <point x="351" y="764"/>
      <point x="369" y="746"/>
      <point x="369" y="709" type="curve" smooth="yes"/>
      <point x="369" y="579" type="line"/>
      <point x="305" y="579" type="line"/>
      <point x="305" y="707" type="line"/>
      <point x="141" y="707" type="line"/>
      <point x="141" y="475" type="line"/>
      <point x="369" y="475" type="line"/>
    </contour>
  </outline>
</glyph>
<glyph name="f_f_i" format="2">
  <advance width="654"/>
  <unicode hex="FB03"/>
  <outline>
    <contour>
      <point x="597" y="0" type="line"/>
      <point x="533" y="0" type="line"/>
      <point x="533" y="418" type="line"/>
      <point x="369" y="418" type="line"/>
      <point x="369" y="0" type="line"/>
      <point x="305" y="0" type="line"/>
      <point x="305" y="418" type="line"/>
      <point x="141" y="418" type="line"/>
      <point x="141" y="0" type="line"/>
      <point x="77" y="0" type="line"/>
      <point x="77" y="418" type="line"/>
      <point x="22" y="418" type="line"/>
      <point x="22" y="475" type="line"/>
      <point x="77" y="475" type="line"/>
      <point x="77" y="709" type="line" smooth="yes"/>
      <point x="77" y="746"/>
      <point x="95" y="764"/>
      <point x="132" y="764" type="curve" smooth="yes"/>
      <point x="233" y="764" type="line"/>
      <point x="233" y="707" type="line"/>
      <point x="141" y="707" type="line"/>
      <point x="141" y="475" type="line"/>
      <point x="305" y="475" type="line"/>
      <point x="305" y="709" type="line" smooth="yes"/>
      <point x="305" y="746"/>
      <point x="323" y="764"/>
      <point x="360" y="764" type="curve" smooth="yes"/>
      <point x="542" y="764" type="line" smooth="yes"/>
      <point x="579" y="764"/>
      <point x="597" y="746"/>
      <point x="597" y="709" type="curve" smooth="yes"/>
      <point x="597" y="579" type="line"/>
      <point x="533" y="579" type="line"/>
      <point x="533" y="707" type="line"/>
      <point x="369" y="707" type="line"/>
      <point x="369" y="475" type="line"/>
      <point x="597" y="475" type="line"/>
    </contour>
  </outline>
</glyph>
<glyph name="f_f_l" format="1">
  <advance width="654"/>
  <unicode hex="FB04"/>
  <outline>
    <contour>
      <point x="597" y="0" type="line"/>
      <point x="533" y="0" type="line"/>
      <point x="533" y="707" type="line"/>
      <point x="369" y="707" type="line"/>
      <point x="369" y="475" type="line"/>
      <point x="450" y="475" type="line"/>
      <point x="450" y="418" type="line"/>
      <point x="369" y="418" type="line"/>
      <point x="369" y="0" type="line"/>
      <point x="305" y="0" type="line"/>
      <point x="305" y="418" type="line"/>
      <point x="141" y="418" type="line"/>
      <point x="141" y="0" type="line"/>
      <point x="77" y="0" type="line"/>
      <point x="77" y="418" type="line"/>
      <point x="22" y="418" type="line"/>
      <point x="22" y="475" type="line"/>
      <point x="77" y="475" type="line"/>
      <point x="77" y="709" type="line" smooth="yes"/>
      <point x="77" y="746"/>
      <point x="95" y="764"/>
      <point x="132" y="764" type="curve" smooth="yes"/>
      <point x="233" y="764" type="line"/>
      <point x="233" y="707" type="line"/>
      <point x="141" y="707" type="line"/>
      <point x="141" y="475" type="line"/>
      <point x="305" y="475" type="line"/>
      <point x="305" y="709" type="line" smooth="yes"/>
      <point x="305" y="746"/>
      <point x="323" y="764"/>
      <point x="360" y="764" type="curve" smooth="yes"/>
      <point x="597" y="764" type="line"/>
    </contour>
  </outline>
</glyph>
<glyph name="A.salt" format="2">
  <advance width="429"/>
  <anchor x="214.5" y="764" name="top"/>
  <anchor x="319" y="0" name="ogonek"/>
  <anchor x="214.5" y="0" name="bottom"/>
  <outline>
    <contour>
      <point x="368" y="0" type="line"/>
      <point x="300" y="0" type="line"/>
      <point x="300" y="343" type="line"/>
      <point x="129" y="343" type="line"/>
      <point x="129" y="0" type="line"/>
      <point x="61" y="0" type="line"/>
      <point x="61" y="710" type="line" smooth="yes"/>
      <point x="61" y="742"/>
      <point x="83" y="764"/>
      <point x="115" y="764" type="curve" smooth="yes"/>
      <point x="313" y="764" type="line" smooth="yes"/>
      <point x="345" y="764"/>
      <point x="368" y="742"/>
      <point x="368" y="710" type="curve" smooth="yes"/>
    </contour>
    <contour>
      <point x="300" y="403" type="line"/>
      <point x="300" y="704" type="line"/>
      <point x="129" y="704" type="line"/>
      <point x="129" y="403" type="line"/>
    </contour>
  </outline>
</glyph>
<glyph name="M.salt" format="2">
  <advance width="600"/>
  <anchor x="300.0" y="0" name="bottom"/>
  <outline>
    <contour>
      <point x="539" y="0" type="line"/>
      <point x="473" y="0" type="line"/>
      <point x="473" y="676" type="line"/>
      <point x="333" y="535" type="line"/>
      <point x="333" y="0" type="line"/>
      <point x="267" y="0" type="line"/>
      <point x="267" y="535" type="line"/>
      <point x="127" y="676" type="line"/>
      <point x="127" y="0" type="line"/>
      <point x="61" y="0" type="line"/>
      <point x="61" y="764" type="line"/>
      <point x="126" y="764" type="line"/>
      <point x="299" y="591" type="line"/>
      <point x="301" y="591" type="line"/>
      <point x="474" y="764" type="line"/>
      <point x="539" y="764" type="line"/>
    </contour>
  </outline>
</glyph>
<glyph name="Y.salt" format="2">
  <advance width="439"/>
  <anchor x="219.5" y="764" name="top"/>
  <anchor x="219.5" y="0" name="bottom"/>
  <outline>
    <contour>
      <point x="378" y="367" type="line"/>
      <point x="378" y="335"/>
      <point x="355" y="313"/>
      <point x="323" y="313" type="curve" smooth="yes"/>
      <point x="253" y="313" type="line"/>
      <point x="253" y="0" type="line"/>
      <point x="185" y="0" type="line"/>
      <point x="185" y="313" type="line"/>
      <point x="115" y="313" type="line" smooth="yes"/>
      <point x="83" y="313"/>
      <point x="61" y="335"/>
      <point x="61" y="367" type="curve" smooth="yes"/>
      <point x="61" y="764" type="line"/>
      <point x="129" y="764" type="line"/>
      <point x="129" y="373" type="line"/>
      <point x="310" y="373" type="line"/>
      <point x="310" y="764" type="line"/>
      <point x="378" y="764" type="line"/>
    </contour>
  </outline>
</glyph>
<glyph name="acutecmb" format="2">
  <anchor x="0" y="475" name="_top"/>
  <outline>
    <contour>
      <point x="112.0" y="631.0" type="line"/>
      <point x="-8.0" y="518.0" type="line"/>
      <point x="-53.0" y="518.0" type="line"/>
      <point x="-53.0" y="521.0" type="line"/>
      <point x="20.0" y="633.0" type="line"/>
      <point x="112.0" y="633.0" type="line"/>
    </contour>
  </outline>
</glyph>
<glyph name="ampersand.salt" format="2">
  <advance width="482"/>
  <outline>
    <contour>
      <point x="453" y="371" type="line"/>
      <point x="358" y="182" type="line"/>
      <point x="446" y="0" type="line"/>
      <point x="377" y="0" type="line"/>
      <point x="325" y="113" type="line"/>
      <point x="291" y="42" type="line" smooth="yes"/>
      <point x="277" y="12"/>
      <point x="265" y="0"/>
      <point x="232" y="0" type="curve" smooth="yes"/>
      <point x="114" y="0" type="line" smooth="yes"/>
      <point x="81" y="0"/>
      <point x="58" y="23"/>
      <point x="58" y="55" type="curve" smooth="yes"/>
      <point x="58" y="260" type="line" smooth="yes"/>
      <point x="58" y="280"/>
      <point x="65" y="296"/>
      <point x="75" y="310" type="curve" smooth="yes"/>
      <point x="168" y="439" type="line"/>
      <point x="116" y="554" type="line"/>
      <point x="107" y="570"/>
      <point x="98" y="591"/>
      <point x="98" y="614" type="curve" smooth="yes"/>
      <point x="98" y="708" type="line" smooth="yes"/>
      <point x="98" y="741"/>
      <point x="121" y="764"/>
      <point x="153" y="764" type="curve" smooth="yes"/>
      <point x="323" y="764" type="line" smooth="yes"/>
      <point x="356" y="764"/>
      <point x="378" y="741"/>
      <point x="378" y="708" type="curve" smooth="yes"/>
      <point x="378" y="606" type="line"/>
      <point x="310" y="606" type="line"/>
      <point x="310" y="704" type="line"/>
      <point x="165" y="704" type="line"/>
      <point x="165" y="592" type="line"/>
      <point x="326" y="251" type="line"/>
      <point x="383" y="371" type="line"/>
    </contour>
    <contour>
      <point x="294" y="182" type="line"/>
      <point x="200" y="378" type="line"/>
      <point x="125" y="271" type="line"/>
      <point x="125" y="60" type="line"/>
      <point x="234" y="60" type="line"/>
    </contour>
  </outline>
</glyph>
<glyph name="caroncmb" format="2">
  <anchor x="0" y="475" name="_top"/>
  <outline>
    <contour>
      <point x="118.0" y="629.0" type="line"/>
      <point x="19.0" y="517.0" type="line"/>
      <point x="-19.0" y="517.0" type="line"/>
      <point x="-118.0" y="629.0" type="line"/>
      <point x="-118.0" y="632.0" type="line"/>
      <point x="-76.0" y="632.0" type="line"/>
      <point x="1.0" y="574.0" type="line"/>
      <point x="78.0" y="632.0" type="line"/>
      <point x="118.0" y="632.0" type="line"/>
    </contour>
  </outline>
</glyph>
<glyph name="caroncmb.vert" format="2">
  <anchor x="-23.0" y="540.0" name="_caron.vert"/>
  <outline>
    <contour>
      <point x="45" y="764" type="line"/>
      <point x="-8" y="554" type="line"/>
      <point x="-55" y="554" type="line"/>
      <point x="-31" y="764" type="line"/>
    </contour>
  </outline>
</glyph>
<glyph name="circumflexcmb" format="2">
  <anchor x="0" y="475" name="_top"/>
  <outline>
    <contour>
      <point x="115.0" y="517.0" type="line"/>
      <point x="73.0" y="517.0" type="line"/>
      <point x="-1.0" y="574.0" type="line"/>
      <point x="-75.0" y="517.0" type="line"/>
      <point x="-115.0" y="517.0" type="line"/>
      <point x="-115.0" y="521.0" type="line"/>
      <point x="-19.0" y="632.0" type="line"/>
      <point x="19.0" y="632.0" type="line"/>
      <point x="115.0" y="521.0" type="line"/>
    </contour>
  </outline>
</glyph>
<glyph name="dieresiscmb" format="2">
  <anchor x="0" y="475" name="_top"/>
  <outline>
    <contour>
      <point x="99.0" y="517.0" type="line"/>
      <point x="27.0" y="517.0" type="line"/>
      <point x="27.0" y="591.0" type="line"/>
      <point x="99.0" y="591.0" type="line"/>
    </contour>
    <contour>
      <point x="-27.0" y="517.0" type="line"/>
      <point x="-99.0" y="517.0" type="line"/>
      <point x="-99.0" y="591.0" type="line"/>
      <point x="-27.0" y="591.0" type="line"/>
    </contour>
  </outline>
</glyph>
<glyph name="eogonek" format="2">
  <advance width="373"/>
  <outline>
    <contour>
      <point x="178" y="-40" type="curve" smooth="yes"/>
      <point x="230" y="10" type="line"/>
      <point x="293" y="10" type="line"/>
      <point x="293" y="6" type="line"/>
      <point x="214" y="-73" type="line"/>
      <point x="214" y="-134" type="line"/>
      <point x="331" y="-134" type="line"/>
      <point x="331" y="-180" type="line"/>
      <point x="198" y="-180" type="line" smooth="yes"/>
      <point x="172" y="-180"/>
      <point x="159" y="-167" name="inserted"/>
      <point x="159" y="-141" type="curve" smooth="yes"/>
      <point x="159" y="-84" type="line" smooth="yes"/>
      <point x="159" y="-63"/>
      <point x="165" y="-53"/>
    </contour>
    <component base="e"/>
  </outline>
</glyph>
<glyph name="gravecmb" format="2">
  <anchor x="0" y="475" name="_top"/>
  <outline>
    <contour>
      <point x="51.0" y="518.0" type="line"/>
      <point x="6.0" y="518.0" type="line"/>
      <point x="-114.0" y="631.0" type="line"/>
      <point x="-114.0" y="633.0" type="line"/>
      <point x="-22.0" y="633.0" type="line"/>
      <point x="51.0" y="521.0" type="line"/>
    </contour>
  </outline>
</glyph>
<glyph name="kgreenlandic" format="2">
  <advance width="335"/>
  <outline>
    <contour>
      <point x="320" y="0" type="line"/>
      <point x="249" y="0" type="line"/>
      <point x="118" y="242" type="line"/>
      <point x="118" y="0" type="line"/>
      <point x="53" y="0" type="line"/>
      <point x="53" y="475" type="line"/>
      <point x="118" y="475" type="line"/>
      <point x="118" y="279" type="line"/>
      <point x="240" y="475" type="line"/>
      <point x="310" y="475" type="line"/>
      <point x="310" y="473" type="line"/>
      <point x="172" y="263" type="line"/>
      <point x="320" y="2" type="line"/>
    </contour>
  </outline>
</glyph>
<glyph name="ringcmb" format="2">
  <anchor x="0" y="475" name="_top"/>
  <outline>
    <contour>
      <point x="94.0" y="562.0" type="line"/>
      <point x="94.0" y="532.0"/>
      <point x="79.0" y="517.0"/>
      <point x="49.0" y="517.0" type="curve" smooth="yes"/>
      <point x="-49.0" y="517.0" type="line" smooth="yes"/>
      <point x="-79.0" y="517.0"/>
      <point x="-94.0" y="532.0"/>
      <point x="-94.0" y="562.0" type="curve" smooth="yes"/>
      <point x="-94.0" y="654.0" type="line" smooth="yes"/>
      <point x="-94.0" y="684.0"/>
      <point x="-79.0" y="699.0"/>
      <point x="-49.0" y="699.0" type="curve" smooth="yes"/>
      <point x="49.0" y="699.0" type="line" smooth="yes"/>
      <point x="79.0" y="699.0"/>
      <point x="94.0" y="684.0"/>
      <point x="94.0" y="654.0" type="curve" smooth="yes"/>
    </contour>
    <contour>
      <point x="44.0" y="562.0" type="line"/>
      <point x="44.0" y="654.0" type="line"/>
      <point x="-44.0" y="654.0" type="line"/>
      <point x="-44.0" y="562.0" type="line"/>
    </contour>
  </outline>
</glyph>
<glyph name="tildecmb" format="2">
  <anchor x="0" y="475" name="_top"/>
  <outline>
    <contour>
      <point x="106.0" y="552.0" type="line"/>
      <point x="106.0" y="529.0"/>
      <point x="93.0" y="516.0"/>
      <point x="70.0" y="516.0" type="curve" smooth="yes"/>
      <point x="58.0" y="516.0"/>
      <point x="48.0" y="519.0"/>
      <point x="35.0" y="524.0" type="curve" smooth="yes"/>
      <point x="-54.0" y="560.0" type="line"/>
      <point x="-54.0" y="517.0" type="line"/>
      <point x="-106.0" y="517.0" type="line"/>
      <point x="-106.0" y="577.0" type="line" smooth="yes"/>
      <point x="-106.0" y="600.0"/>
      <point x="-93.0" y="613.0"/>
      <point x="-70.0" y="613.0" type="curve" smooth="yes"/>
      <point x="-58.0" y="613.0"/>
      <point x="-48.0" y="610.0"/>
      <point x="-35.0" y="605.0" type="curve" smooth="yes"/>
      <point x="54.0" y="569.0" type="line"/>
      <point x="54.0" y="612.0" type="line"/>
      <point x="106.0" y="612.0" type="line"/>
    </contour>
  </outline>
</glyph>
